<?xml version='1.0' encoding='UTF-8' standalone='no'?>
<!-- Created with Fritzing (http://www.fritzing.org/) -->
<svg xmlns:svg='http://www.w3.org/2000/svg' xmlns='http://www.w3.org/2000/svg' version='1.2' baseProfile='tiny' x='0in' y='0in' width='3.07716in' height='2.07501in' viewBox='0 0 221.555 149.4' >
<g partID='57780'><g transform='translate(32.9759,25.2)' ><g id="schematic" xmlns="http://www.w3.org/2000/svg">
<rect fill="#FFFFFF" y="0.45" stroke="#000000" stroke-linecap="round" class="interior rect" height="35.1" stroke-width="0.9" xmlns="http://www.w3.org/2000/svg" width="42.3" x="14.85"/>
<line fill="none" stroke="#787878" stroke-linecap="round" class="pin" x1="57.2499" y2="7.2" stroke-width="0.699999" id="connector7pin" xmlns="http://www.w3.org/2000/svg" y1="7.2" x2="71.6499"/>
<text fill="#8c8c8c" stroke="none" y="6.14999" font-size="2.5" class="text" stroke-width="0" xmlns="http://www.w3.org/2000/svg" font-family="'Droid Sans'" x="64.4499" text-anchor="middle">8</text>
<text fill="#8c8c8c" stroke="none" y="7.89999" font-size="3.49999" class="text" stroke-width="0" xmlns="http://www.w3.org/2000/svg" font-family="'Droid Sans'" x="55.8499" text-anchor="end">Pin 8</text>
<g fill="none" y="6.85001" stroke="none" class="terminal" height="0.699999" stroke-width="0" id="connector7terminal" xmlns="http://www.w3.org/2000/svg" width="0.699999" x="71.6499"/>
<line fill="none" stroke="#787878" stroke-linecap="round" class="pin" x1="57.2499" y2="14.4" stroke-width="0.699999" id="connector6pin" xmlns="http://www.w3.org/2000/svg" y1="14.4" x2="71.6499"/>
<text fill="#8c8c8c" stroke="none" y="13.35" font-size="2.5" class="text" stroke-width="0" xmlns="http://www.w3.org/2000/svg" font-family="'Droid Sans'" x="64.4499" text-anchor="middle">7</text>
<text fill="#8c8c8c" stroke="none" y="15.1" font-size="3.49999" class="text" stroke-width="0" xmlns="http://www.w3.org/2000/svg" font-family="'Droid Sans'" x="55.8499" text-anchor="end">Pin 7</text>
<g fill="none" y="14.05" stroke="none" class="terminal" height="0.699999" stroke-width="0" id="connector6terminal" xmlns="http://www.w3.org/2000/svg" width="0.699999" x="71.6499"/>
<line fill="none" stroke="#787878" stroke-linecap="round" class="pin" x1="57.2499" y2="21.6" stroke-width="0.699999" id="connector5pin" xmlns="http://www.w3.org/2000/svg" y1="21.6" x2="71.6499"/>
<text fill="#8c8c8c" stroke="none" y="20.55" font-size="2.5" class="text" stroke-width="0" xmlns="http://www.w3.org/2000/svg" font-family="'Droid Sans'" x="64.4499" text-anchor="middle">6</text>
<text fill="#8c8c8c" stroke="none" y="22.3" font-size="3.49999" class="text" stroke-width="0" xmlns="http://www.w3.org/2000/svg" font-family="'Droid Sans'" x="55.8499" text-anchor="end">Pin 6</text>
<g fill="none" y="21.25" stroke="none" class="terminal" height="0.699999" stroke-width="0" id="connector5terminal" xmlns="http://www.w3.org/2000/svg" width="0.699999" x="71.6499"/>
<line fill="none" stroke="#787878" stroke-linecap="round" class="pin" x1="57.2499" y2="28.8" stroke-width="0.699999" id="connector4pin" xmlns="http://www.w3.org/2000/svg" y1="28.8" x2="71.6499"/>
<text fill="#8c8c8c" stroke="none" y="27.75" font-size="2.5" class="text" stroke-width="0" xmlns="http://www.w3.org/2000/svg" font-family="'Droid Sans'" x="64.4499" text-anchor="middle">5</text>
<text fill="#8c8c8c" stroke="none" y="29.4999" font-size="3.49999" class="text" stroke-width="0" xmlns="http://www.w3.org/2000/svg" font-family="'Droid Sans'" x="55.8499" text-anchor="end">Pin 5</text>
<g fill="none" y="28.4499" stroke="none" class="terminal" height="0.699999" stroke-width="0" id="connector4terminal" xmlns="http://www.w3.org/2000/svg" width="0.699999" x="71.6499"/>
<line fill="none" stroke="#787878" stroke-linecap="round" class="pin" x1="0.349999" y2="7.2" stroke-width="0.699999" id="connector0pin" xmlns="http://www.w3.org/2000/svg" y1="7.2" x2="14.75"/>
<text fill="#8c8c8c" stroke="none" y="6.14999" font-size="2.5" class="text" stroke-width="0" xmlns="http://www.w3.org/2000/svg" font-family="'Droid Sans'" x="7.54999" text-anchor="middle">1</text>
<text fill="#8c8c8c" stroke="none" y="7.89999" font-size="3.49999" class="text" stroke-width="0" xmlns="http://www.w3.org/2000/svg" font-family="'Droid Sans'" x="16.15" text-anchor="start">Pin 1</text>
<g fill="none" y="6.85001" stroke="none" class="terminal" height="0.699999" stroke-width="0" id="connector0terminal" xmlns="http://www.w3.org/2000/svg" width="0.699999" x="-0.349999"/>
<line fill="none" stroke="#787878" stroke-linecap="round" class="pin" x1="0.349999" y2="14.4" stroke-width="0.699999" id="connector1pin" xmlns="http://www.w3.org/2000/svg" y1="14.4" x2="14.75"/>
<text fill="#8c8c8c" stroke="none" y="13.35" font-size="2.5" class="text" stroke-width="0" xmlns="http://www.w3.org/2000/svg" font-family="'Droid Sans'" x="7.54999" text-anchor="middle">2</text>
<text fill="#8c8c8c" stroke="none" y="15.1" font-size="3.49999" class="text" stroke-width="0" xmlns="http://www.w3.org/2000/svg" font-family="'Droid Sans'" x="16.15" text-anchor="start">Pin 2</text>
<g fill="none" y="14.05" stroke="none" class="terminal" height="0.699999" stroke-width="0" id="connector1terminal" xmlns="http://www.w3.org/2000/svg" width="0.699999" x="-0.349999"/>
<line fill="none" stroke="#787878" stroke-linecap="round" class="pin" x1="0.349999" y2="21.6" stroke-width="0.699999" id="connector2pin" xmlns="http://www.w3.org/2000/svg" y1="21.6" x2="14.75"/>
<text fill="#8c8c8c" stroke="none" y="20.55" font-size="2.5" class="text" stroke-width="0" xmlns="http://www.w3.org/2000/svg" font-family="'Droid Sans'" x="7.54999" text-anchor="middle">3</text>
<text fill="#8c8c8c" stroke="none" y="22.3" font-size="3.49999" class="text" stroke-width="0" xmlns="http://www.w3.org/2000/svg" font-family="'Droid Sans'" x="16.15" text-anchor="start">Pin 3</text>
<g fill="none" y="21.25" stroke="none" class="terminal" height="0.699999" stroke-width="0" id="connector2terminal" xmlns="http://www.w3.org/2000/svg" width="0.699999" x="-0.349999"/>
<line fill="none" stroke="#787878" stroke-linecap="round" class="pin" x1="0.349999" y2="28.8" stroke-width="0.699999" id="connector3pin" xmlns="http://www.w3.org/2000/svg" y1="28.8" x2="14.75"/>
<text fill="#8c8c8c" stroke="none" y="27.75" font-size="2.5" class="text" stroke-width="0" xmlns="http://www.w3.org/2000/svg" font-family="'Droid Sans'" x="7.54999" text-anchor="middle">4</text>
<text fill="#8c8c8c" stroke="none" y="29.4999" font-size="3.49999" class="text" stroke-width="0" xmlns="http://www.w3.org/2000/svg" font-family="'Droid Sans'" x="16.15" text-anchor="start">Pin 4</text>
<g fill="none" y="28.4499" stroke="none" class="terminal" height="0.699999" stroke-width="0" id="connector3terminal" xmlns="http://www.w3.org/2000/svg" width="0.699999" x="-0.349999"/>
<text fill="#000000" stroke="none" y="16.1833" font-size="4.25001" class="text" stroke-width="0" id="label" xmlns="http://www.w3.org/2000/svg" font-family="'Droid Sans'" x="36.4501" text-anchor="middle">attiny85</text>
</g>
</g></g><g partID='65410'><g transform='translate(180.072,89.6497)' ><g transform='matrix(0,1,-1,0,0,0)'  ><g id="schematic" xmlns="http://www.w3.org/2000/svg">
<line stroke="#000000" stroke-linecap="round" class="other" x1="7.55002" y2="0.216" stroke-width="0.432002" xmlns="http://www.w3.org/2000/svg" y1="3.096" x2="8.63003"/>
<line stroke="#000000" stroke-linecap="round" class="other" x1="8.63003" y2="5.976" stroke-width="0.432002" xmlns="http://www.w3.org/2000/svg" y1="0.216" x2="10.43"/>
<line stroke="#000000" stroke-linecap="round" class="other" x1="10.43" y2="0.216" stroke-width="0.432002" xmlns="http://www.w3.org/2000/svg" y1="5.976" x2="12.23"/>
<line stroke="#000000" stroke-linecap="round" class="other" x1="12.23" y2="5.976" stroke-width="0.432002" xmlns="http://www.w3.org/2000/svg" y1="0.216" x2="14.03"/>
<line stroke="#000000" stroke-linecap="round" class="other" x1="14.03" y2="0.216" stroke-width="0.432002" xmlns="http://www.w3.org/2000/svg" y1="5.976" x2="15.8301"/>
<line stroke="#000000" stroke-linecap="round" class="other" x1="15.8301" y2="5.976" stroke-width="0.432002" xmlns="http://www.w3.org/2000/svg" y1="0.216" x2="17.6301"/>
<line stroke="#000000" stroke-linecap="round" class="other" x1="17.6301" y2="0.216" stroke-width="0.432002" xmlns="http://www.w3.org/2000/svg" y1="5.976" x2="19.4301"/>
<line stroke="#000000" stroke-linecap="round" class="other" x1="19.4301" y2="5.976" stroke-width="0.432002" xmlns="http://www.w3.org/2000/svg" y1="0.216" x2="21.2301"/>
<line stroke="#000000" stroke-linecap="round" class="other" x1="21.2301" y2="3.096" stroke-width="0.432002" xmlns="http://www.w3.org/2000/svg" y1="5.976" x2="21.9501"/>
<line stroke="#787878" stroke-linecap="round" class="pin" x1="29.1502" connectorname="2" y2="3.096" stroke-width="0.700001" id="connector1pin" xmlns="http://www.w3.org/2000/svg" y1="3.096" x2="21.9501"/>
<g fill="none" y="3.096" stroke="none" class="terminal" height="0.000283465" stroke-width="0" id="connector1terminal" xmlns="http://www.w3.org/2000/svg" width="0.000283466" x="29.1502"/>
<text fill="#8c8c8c" stroke="none" y="2.046" font-size="2.50001" class="text" stroke-width="0" xmlns="http://www.w3.org/2000/svg" font-family="'Droid Sans'" x="25.5501" text-anchor="middle">2</text>
<line stroke="#787878" stroke-linecap="round" class="pin" x1="0.350001" connectorname="1" y2="3.096" stroke-width="0.700001" id="connector0pin" xmlns="http://www.w3.org/2000/svg" y1="3.096" x2="7.55002"/>
<g fill="none" y="3.096" stroke="none" class="terminal" height="0.000283465" stroke-width="0" id="connector0terminal" xmlns="http://www.w3.org/2000/svg" width="0.000283466" x="0.350001"/>
<text fill="#8c8c8c" stroke="none" y="2.046" font-size="2.50001" class="text" stroke-width="0" xmlns="http://www.w3.org/2000/svg" font-family="'Droid Sans'" x="3.95001" text-anchor="middle">1</text>
</g>
</g></g></g><g partID='65500'><g transform='translate(64.872,89.6497)' ><g transform='matrix(0,1,-1,0,0,0)'  ><g id="schematic" xmlns="http://www.w3.org/2000/svg">
<line stroke="#000000" stroke-linecap="round" class="other" x1="7.55002" y2="0.216" stroke-width="0.432002" xmlns="http://www.w3.org/2000/svg" y1="3.096" x2="8.63003"/>
<line stroke="#000000" stroke-linecap="round" class="other" x1="8.63003" y2="5.976" stroke-width="0.432002" xmlns="http://www.w3.org/2000/svg" y1="0.216" x2="10.43"/>
<line stroke="#000000" stroke-linecap="round" class="other" x1="10.43" y2="0.216" stroke-width="0.432002" xmlns="http://www.w3.org/2000/svg" y1="5.976" x2="12.23"/>
<line stroke="#000000" stroke-linecap="round" class="other" x1="12.23" y2="5.976" stroke-width="0.432002" xmlns="http://www.w3.org/2000/svg" y1="0.216" x2="14.03"/>
<line stroke="#000000" stroke-linecap="round" class="other" x1="14.03" y2="0.216" stroke-width="0.432002" xmlns="http://www.w3.org/2000/svg" y1="5.976" x2="15.8301"/>
<line stroke="#000000" stroke-linecap="round" class="other" x1="15.8301" y2="5.976" stroke-width="0.432002" xmlns="http://www.w3.org/2000/svg" y1="0.216" x2="17.6301"/>
<line stroke="#000000" stroke-linecap="round" class="other" x1="17.6301" y2="0.216" stroke-width="0.432002" xmlns="http://www.w3.org/2000/svg" y1="5.976" x2="19.4301"/>
<line stroke="#000000" stroke-linecap="round" class="other" x1="19.4301" y2="5.976" stroke-width="0.432002" xmlns="http://www.w3.org/2000/svg" y1="0.216" x2="21.2301"/>
<line stroke="#000000" stroke-linecap="round" class="other" x1="21.2301" y2="3.096" stroke-width="0.432002" xmlns="http://www.w3.org/2000/svg" y1="5.976" x2="21.9501"/>
<line stroke="#787878" stroke-linecap="round" class="pin" x1="29.1502" connectorname="2" y2="3.096" stroke-width="0.700001" id="connector1pin" xmlns="http://www.w3.org/2000/svg" y1="3.096" x2="21.9501"/>
<g fill="none" y="3.096" stroke="none" class="terminal" height="0.000283465" stroke-width="0" id="connector1terminal" xmlns="http://www.w3.org/2000/svg" width="0.000283466" x="29.1502"/>
<text fill="#8c8c8c" stroke="none" y="2.046" font-size="2.50001" class="text" stroke-width="0" xmlns="http://www.w3.org/2000/svg" font-family="'Droid Sans'" x="25.5501" text-anchor="middle">2</text>
<line stroke="#787878" stroke-linecap="round" class="pin" x1="0.350001" connectorname="1" y2="3.096" stroke-width="0.700001" id="connector0pin" xmlns="http://www.w3.org/2000/svg" y1="3.096" x2="7.55002"/>
<g fill="none" y="3.096" stroke="none" class="terminal" height="0.000283465" stroke-width="0" id="connector0terminal" xmlns="http://www.w3.org/2000/svg" width="0.000283466" x="0.350001"/>
<text fill="#8c8c8c" stroke="none" y="2.046" font-size="2.50001" class="text" stroke-width="0" xmlns="http://www.w3.org/2000/svg" font-family="'Droid Sans'" x="3.95001" text-anchor="middle">1</text>
</g>
</g></g></g><g partID='65480'><g transform='translate(122.472,89.6497)' ><g transform='matrix(0,1,-1,0,0,0)'  ><g id="schematic" xmlns="http://www.w3.org/2000/svg">
<line stroke="#000000" stroke-linecap="round" class="other" x1="7.55002" y2="0.216" stroke-width="0.432002" xmlns="http://www.w3.org/2000/svg" y1="3.096" x2="8.63003"/>
<line stroke="#000000" stroke-linecap="round" class="other" x1="8.63003" y2="5.976" stroke-width="0.432002" xmlns="http://www.w3.org/2000/svg" y1="0.216" x2="10.43"/>
<line stroke="#000000" stroke-linecap="round" class="other" x1="10.43" y2="0.216" stroke-width="0.432002" xmlns="http://www.w3.org/2000/svg" y1="5.976" x2="12.23"/>
<line stroke="#000000" stroke-linecap="round" class="other" x1="12.23" y2="5.976" stroke-width="0.432002" xmlns="http://www.w3.org/2000/svg" y1="0.216" x2="14.03"/>
<line stroke="#000000" stroke-linecap="round" class="other" x1="14.03" y2="0.216" stroke-width="0.432002" xmlns="http://www.w3.org/2000/svg" y1="5.976" x2="15.8301"/>
<line stroke="#000000" stroke-linecap="round" class="other" x1="15.8301" y2="5.976" stroke-width="0.432002" xmlns="http://www.w3.org/2000/svg" y1="0.216" x2="17.6301"/>
<line stroke="#000000" stroke-linecap="round" class="other" x1="17.6301" y2="0.216" stroke-width="0.432002" xmlns="http://www.w3.org/2000/svg" y1="5.976" x2="19.4301"/>
<line stroke="#000000" stroke-linecap="round" class="other" x1="19.4301" y2="5.976" stroke-width="0.432002" xmlns="http://www.w3.org/2000/svg" y1="0.216" x2="21.2301"/>
<line stroke="#000000" stroke-linecap="round" class="other" x1="21.2301" y2="3.096" stroke-width="0.432002" xmlns="http://www.w3.org/2000/svg" y1="5.976" x2="21.9501"/>
<line stroke="#787878" stroke-linecap="round" class="pin" x1="29.1502" connectorname="2" y2="3.096" stroke-width="0.700001" id="connector1pin" xmlns="http://www.w3.org/2000/svg" y1="3.096" x2="21.9501"/>
<g fill="none" y="3.096" stroke="none" class="terminal" height="0.000283465" stroke-width="0" id="connector1terminal" xmlns="http://www.w3.org/2000/svg" width="0.000283466" x="29.1502"/>
<text fill="#8c8c8c" stroke="none" y="2.046" font-size="2.50001" class="text" stroke-width="0" xmlns="http://www.w3.org/2000/svg" font-family="'Droid Sans'" x="25.5501" text-anchor="middle">2</text>
<line stroke="#787878" stroke-linecap="round" class="pin" x1="0.350001" connectorname="1" y2="3.096" stroke-width="0.700001" id="connector0pin" xmlns="http://www.w3.org/2000/svg" y1="3.096" x2="7.55002"/>
<g fill="none" y="3.096" stroke="none" class="terminal" height="0.000283465" stroke-width="0" id="connector0terminal" xmlns="http://www.w3.org/2000/svg" width="0.000283466" x="0.350001"/>
<text fill="#8c8c8c" stroke="none" y="2.046" font-size="2.50001" class="text" stroke-width="0" xmlns="http://www.w3.org/2000/svg" font-family="'Droid Sans'" x="3.95001" text-anchor="middle">1</text>
</g>
</g></g></g><g partID='76190'><g transform='translate(22.752,24.8499)' ><g transform='matrix(0,1,-1,0,0,0)'  ><g id="schematic" xmlns="http://www.w3.org/2000/svg">
<line stroke="#000000" stroke-linecap="round" class="other" x1="11.15" y2="22.176" stroke-width="1.152" xmlns="http://www.w3.org/2000/svg" y1="0.576" x2="11.15"/>
<line stroke="#000000" stroke-linecap="round" class="other" x1="14.75" y2="14.976" stroke-width="1.152" xmlns="http://www.w3.org/2000/svg" y1="7.776" x2="14.75"/>
<line stroke="#000000" stroke-linecap="round" class="other" x1="18.3501" y2="22.176" stroke-width="1.152" xmlns="http://www.w3.org/2000/svg" y1="0.576" x2="18.3501"/>
<line stroke="#000000" stroke-linecap="round" class="other" x1="21.9501" y2="14.976" stroke-width="1.152" xmlns="http://www.w3.org/2000/svg" y1="7.776" x2="21.9501"/>
<line stroke="#000000" stroke-linecap="round" class="other" x1="7.55002" y2="11.376" stroke-width="0.432002" xmlns="http://www.w3.org/2000/svg" y1="11.376" x2="10.43"/>
<line stroke="#787878" stroke-linecap="round" class="pin" x1="29.1502" connectorname="-" y2="11.376" stroke-width="0.700001" id="connector0pin" xmlns="http://www.w3.org/2000/svg" y1="11.376" x2="21.9501"/>
<g fill="none" y="11.376" stroke="none" class="terminal" height="0.000283465" stroke-width="0" id="connector0terminal" xmlns="http://www.w3.org/2000/svg" width="0.000283466" x="29.1502"/>
<text fill="#8c8c8c" stroke="none" y="10.326" font-size="2.50001" class="text" stroke-width="0" xmlns="http://www.w3.org/2000/svg" font-family="'Droid Sans'" x="25.5501" text-anchor="middle">1</text>
<line stroke="#787878" stroke-linecap="round" class="pin" x1="0.350001" connectorname="+" y2="11.376" stroke-width="0.700001" id="connector1pin" xmlns="http://www.w3.org/2000/svg" y1="11.376" x2="7.55002"/>
<g fill="none" y="11.376" stroke="none" class="terminal" height="0.000283465" stroke-width="0" id="connector1terminal" xmlns="http://www.w3.org/2000/svg" width="0.000283466" x="0.350001"/>
<text fill="#8c8c8c" stroke="none" y="10.326" font-size="2.50001" class="text" stroke-width="0" xmlns="http://www.w3.org/2000/svg" font-family="'Droid Sans'" x="3.95001" text-anchor="middle">2</text>
</g>
</g></g></g><g partID='83730'><g transform='translate(167.075,125.784)' ><g id="schematic">
<g>
<path d="M13.5,14.966L9.9,14.966c-0.193,0,-0.35,-0.156,-0.35,-0.35s0.156,-0.35,0.35,-0.35L13.5,14.266c0.193,0,0.35,0.156,0.35,0.35S13.694,14.966,13.5,14.966z"/>
</g>
<g>
<path d="M9.9,14.966L6.3,14.966c-0.193,0,-0.35,-0.156,-0.35,-0.35s0.157,-0.35,0.35,-0.35l3.6,0c0.193,0,0.35,0.156,0.35,0.35S10.093,14.966,9.9,14.966z"/>
</g>
<g>
<polygon fill="#FFFFFF" points="9.9,14.616,6.3,7.416,9.9,7.416,13.5,7.416"/>
<path d="M9.9,15.398L5.734,7.066l8.333,0L9.9,15.398zM6.866,7.766L9.9,13.834l3.034,-6.068L6.866,7.766z"/>
</g>
<g>
<path d="M9.9,14.841c-0.124,0,-0.225,-0.101,-0.225,-0.225l0,-7.2c0,-0.124,0.101,-0.225,0.225,-0.225s0.225,0.101,0.225,0.225l0,7.2C10.124,14.74,10.024,14.841,9.9,14.841z"/>
</g>
<g>
<path d="M1.8,12.141c-0.058,0,-0.115,-0.021,-0.159,-0.065c-0.088,-0.088,-0.088,-0.23,0,-0.318l2.34,-2.341c0.088,-0.088,0.23,-0.088,0.318,0s0.088,0.23,0,0.318l-2.34,2.341C1.915,12.12,1.858,12.141,1.8,12.141z"/>
</g>
<g>
<path d="M2.16,15.381c-0.058,0,-0.115,-0.021,-0.159,-0.065c-0.088,-0.088,-0.088,-0.23,0,-0.318l2.34,-2.34c0.088,-0.088,0.23,-0.088,0.318,0s0.088,0.23,0,0.318l-2.34,2.34C2.276,15.359,2.218,15.381,2.16,15.381z"/>
</g>
<g id="connector0pin">
<path fill="#787878" d="M9.9,22.166c-0.193,0,-0.35,-0.156,-0.35,-0.35l0,-7.2c0,-0.193,0.156,-0.35,0.35,-0.35s0.35,0.156,0.35,0.35l0,7.2C10.249,22.01,10.093,22.166,9.9,22.166z"/>
</g>
<g id="connector0terminal">
<rect fill="none" y="21.816" height="0.001" width="0.001" x="9.9"/>
</g>
<g transform="matrix(1, 0, 0, 1, 3.429, 6.4262)">
<g>
<g transform="rotate(270)">
<g>
<g enable-background="new    ">
<path fill="#787878" d="M-11.647,5.54l-0.891,0L-12.538,5.388l0.342,-0.372c0.049,-0.053,0.093,-0.101,0.131,-0.145s0.071,-0.086,0.099,-0.128c0.026,-0.042,0.047,-0.084,0.062,-0.125c0.015,-0.043,0.021,-0.088,0.021,-0.138c0,-0.038,-0.005,-0.072,-0.017,-0.102s-0.027,-0.054,-0.047,-0.075c-0.021,-0.02,-0.045,-0.035,-0.073,-0.046s-0.06,-0.016,-0.094,-0.016c-0.062,0,-0.118,0.013,-0.167,0.038c-0.051,0.024,-0.098,0.057,-0.143,0.096l-0.1,-0.116c0.025,-0.023,0.055,-0.046,0.084,-0.065c0.029,-0.021,0.063,-0.039,0.097,-0.054s0.071,-0.026,0.109,-0.036c0.038,-0.008,0.079,-0.013,0.121,-0.013c0.063,0,0.119,0.009,0.169,0.026c0.051,0.018,0.094,0.043,0.129,0.076c0.035,0.032,0.063,0.072,0.082,0.119c0.019,0.048,0.028,0.101,0.028,0.16c0,0.056,-0.009,0.108,-0.026,0.158c-0.017,0.05,-0.041,0.1,-0.07,0.148c-0.031,0.048,-0.066,0.097,-0.109,0.146c-0.041,0.049,-0.087,0.1,-0.136,0.152L-12.32,5.37l0,0.008l0.673,0L-11.647,5.54z"/>
</g>
</g>
</g>
</g>
</g>
<g id="connector1pin">
<path fill="#787878" d="M9.9,7.766c-0.193,0,-0.35,-0.157,-0.35,-0.35l0,-7.2c0,-0.193,0.156,-0.35,0.35,-0.35s0.35,0.157,0.35,0.35l0,7.2C10.249,7.609,10.093,7.766,9.9,7.766z"/>
</g>
<g id="connector1terminal">
<polygon fill="none" points="9.9,0.216,9.901,0.216,9.901,0.216"/>
</g>
<g transform="matrix(1, 0, 0, 1, 3.429, 1.3462)">
<g>
<g transform="rotate(270)">
<g>
<g enable-background="new    ">
<path fill="#787878" d="M-2.616,5.54l-0.172,0L-2.788,4.648c0,-0.028,0,-0.058,0,-0.09s0.001,-0.063,0.002,-0.095c0.001,-0.032,0.002,-0.063,0.003,-0.092c0.001,-0.028,0.002,-0.054,0.002,-0.076c-0.011,0.012,-0.021,0.021,-0.029,0.03s-0.017,0.017,-0.026,0.024s-0.018,0.016,-0.028,0.025c-0.01,0.008,-0.021,0.019,-0.035,0.03l-0.145,0.118l-0.094,-0.12l0.374,-0.292l0.146,0L-2.618,5.54z"/>
</g>
</g>
</g>
</g>
</g>
<g>
<path d="M0.18,13.536l1.08,-2.521l1.44,1.438L0.18,13.536z"/>
</g>
<g>
<path d="M0.54,16.776l1.08,-2.521l1.438,1.438L0.54,16.776z"/>
</g>
</g>
</g></g><g partID='83510'><g transform='translate(51.8754,125.784)' ><g id="schematic">
<g>
<path d="M13.5,14.966L9.9,14.966c-0.193,0,-0.35,-0.156,-0.35,-0.35s0.156,-0.35,0.35,-0.35L13.5,14.266c0.193,0,0.35,0.156,0.35,0.35S13.694,14.966,13.5,14.966z"/>
</g>
<g>
<path d="M9.9,14.966L6.3,14.966c-0.193,0,-0.35,-0.156,-0.35,-0.35s0.157,-0.35,0.35,-0.35l3.6,0c0.193,0,0.35,0.156,0.35,0.35S10.093,14.966,9.9,14.966z"/>
</g>
<g>
<polygon fill="#FFFFFF" points="9.9,14.616,6.3,7.416,9.9,7.416,13.5,7.416"/>
<path d="M9.9,15.398L5.734,7.066l8.333,0L9.9,15.398zM6.866,7.766L9.9,13.834l3.034,-6.068L6.866,7.766z"/>
</g>
<g>
<path d="M9.9,14.841c-0.124,0,-0.225,-0.101,-0.225,-0.225l0,-7.2c0,-0.124,0.101,-0.225,0.225,-0.225s0.225,0.101,0.225,0.225l0,7.2C10.124,14.74,10.024,14.841,9.9,14.841z"/>
</g>
<g>
<path d="M1.8,12.141c-0.058,0,-0.115,-0.021,-0.159,-0.065c-0.088,-0.088,-0.088,-0.23,0,-0.318l2.34,-2.341c0.088,-0.088,0.23,-0.088,0.318,0s0.088,0.23,0,0.318l-2.34,2.341C1.915,12.12,1.858,12.141,1.8,12.141z"/>
</g>
<g>
<path d="M2.16,15.381c-0.058,0,-0.115,-0.021,-0.159,-0.065c-0.088,-0.088,-0.088,-0.23,0,-0.318l2.34,-2.34c0.088,-0.088,0.23,-0.088,0.318,0s0.088,0.23,0,0.318l-2.34,2.34C2.276,15.359,2.218,15.381,2.16,15.381z"/>
</g>
<g id="connector0pin">
<path fill="#787878" d="M9.9,22.166c-0.193,0,-0.35,-0.156,-0.35,-0.35l0,-7.2c0,-0.193,0.156,-0.35,0.35,-0.35s0.35,0.156,0.35,0.35l0,7.2C10.249,22.01,10.093,22.166,9.9,22.166z"/>
</g>
<g id="connector0terminal">
<rect fill="none" y="21.816" height="0.001" width="0.001" x="9.9"/>
</g>
<g transform="matrix(1, 0, 0, 1, 3.429, 6.4262)">
<g>
<g transform="rotate(270)">
<g>
<g enable-background="new    ">
<path fill="#787878" d="M-11.647,5.54l-0.891,0L-12.538,5.388l0.342,-0.372c0.049,-0.053,0.093,-0.101,0.131,-0.145s0.071,-0.086,0.099,-0.128c0.026,-0.042,0.047,-0.084,0.062,-0.125c0.015,-0.043,0.021,-0.088,0.021,-0.138c0,-0.038,-0.005,-0.072,-0.017,-0.102s-0.027,-0.054,-0.047,-0.075c-0.021,-0.02,-0.045,-0.035,-0.073,-0.046s-0.06,-0.016,-0.094,-0.016c-0.062,0,-0.118,0.013,-0.167,0.038c-0.051,0.024,-0.098,0.057,-0.143,0.096l-0.1,-0.116c0.025,-0.023,0.055,-0.046,0.084,-0.065c0.029,-0.021,0.063,-0.039,0.097,-0.054s0.071,-0.026,0.109,-0.036c0.038,-0.008,0.079,-0.013,0.121,-0.013c0.063,0,0.119,0.009,0.169,0.026c0.051,0.018,0.094,0.043,0.129,0.076c0.035,0.032,0.063,0.072,0.082,0.119c0.019,0.048,0.028,0.101,0.028,0.16c0,0.056,-0.009,0.108,-0.026,0.158c-0.017,0.05,-0.041,0.1,-0.07,0.148c-0.031,0.048,-0.066,0.097,-0.109,0.146c-0.041,0.049,-0.087,0.1,-0.136,0.152L-12.32,5.37l0,0.008l0.673,0L-11.647,5.54z"/>
</g>
</g>
</g>
</g>
</g>
<g id="connector1pin">
<path fill="#787878" d="M9.9,7.766c-0.193,0,-0.35,-0.157,-0.35,-0.35l0,-7.2c0,-0.193,0.156,-0.35,0.35,-0.35s0.35,0.157,0.35,0.35l0,7.2C10.249,7.609,10.093,7.766,9.9,7.766z"/>
</g>
<g id="connector1terminal">
<polygon fill="none" points="9.9,0.216,9.901,0.216,9.901,0.216"/>
</g>
<g transform="matrix(1, 0, 0, 1, 3.429, 1.3462)">
<g>
<g transform="rotate(270)">
<g>
<g enable-background="new    ">
<path fill="#787878" d="M-2.616,5.54l-0.172,0L-2.788,4.648c0,-0.028,0,-0.058,0,-0.09s0.001,-0.063,0.002,-0.095c0.001,-0.032,0.002,-0.063,0.003,-0.092c0.001,-0.028,0.002,-0.054,0.002,-0.076c-0.011,0.012,-0.021,0.021,-0.029,0.03s-0.017,0.017,-0.026,0.024s-0.018,0.016,-0.028,0.025c-0.01,0.008,-0.021,0.019,-0.035,0.03l-0.145,0.118l-0.094,-0.12l0.374,-0.292l0.146,0L-2.618,5.54z"/>
</g>
</g>
</g>
</g>
</g>
<g>
<path d="M0.18,13.536l1.08,-2.521l1.44,1.438L0.18,13.536z"/>
</g>
<g>
<path d="M0.54,16.776l1.08,-2.521l1.438,1.438L0.54,16.776z"/>
</g>
</g>
</g></g><g partID='70510'><g transform='translate(109.475,125.784)' ><g id="schematic">
<g>
<path d="M13.5,14.966L9.9,14.966c-0.193,0,-0.35,-0.156,-0.35,-0.35s0.156,-0.35,0.35,-0.35L13.5,14.266c0.193,0,0.35,0.156,0.35,0.35S13.694,14.966,13.5,14.966z"/>
</g>
<g>
<path d="M9.9,14.966L6.3,14.966c-0.193,0,-0.35,-0.156,-0.35,-0.35s0.157,-0.35,0.35,-0.35l3.6,0c0.193,0,0.35,0.156,0.35,0.35S10.093,14.966,9.9,14.966z"/>
</g>
<g>
<polygon fill="#FFFFFF" points="9.9,14.616,6.3,7.416,9.9,7.416,13.5,7.416"/>
<path d="M9.9,15.398L5.734,7.066l8.333,0L9.9,15.398zM6.866,7.766L9.9,13.834l3.034,-6.068L6.866,7.766z"/>
</g>
<g>
<path d="M9.9,14.841c-0.124,0,-0.225,-0.101,-0.225,-0.225l0,-7.2c0,-0.124,0.101,-0.225,0.225,-0.225s0.225,0.101,0.225,0.225l0,7.2C10.124,14.74,10.024,14.841,9.9,14.841z"/>
</g>
<g>
<path d="M1.8,12.141c-0.058,0,-0.115,-0.021,-0.159,-0.065c-0.088,-0.088,-0.088,-0.23,0,-0.318l2.34,-2.341c0.088,-0.088,0.23,-0.088,0.318,0s0.088,0.23,0,0.318l-2.34,2.341C1.915,12.12,1.858,12.141,1.8,12.141z"/>
</g>
<g>
<path d="M2.16,15.381c-0.058,0,-0.115,-0.021,-0.159,-0.065c-0.088,-0.088,-0.088,-0.23,0,-0.318l2.34,-2.34c0.088,-0.088,0.23,-0.088,0.318,0s0.088,0.23,0,0.318l-2.34,2.34C2.276,15.359,2.218,15.381,2.16,15.381z"/>
</g>
<g id="connector0pin">
<path fill="#787878" d="M9.9,22.166c-0.193,0,-0.35,-0.156,-0.35,-0.35l0,-7.2c0,-0.193,0.156,-0.35,0.35,-0.35s0.35,0.156,0.35,0.35l0,7.2C10.249,22.01,10.093,22.166,9.9,22.166z"/>
</g>
<g id="connector0terminal">
<rect fill="none" y="21.816" height="0.001" width="0.001" x="9.9"/>
</g>
<g transform="matrix(1, 0, 0, 1, 3.429, 6.4262)">
<g>
<g transform="rotate(270)">
<g>
<g enable-background="new    ">
<path fill="#787878" d="M-11.647,5.54l-0.891,0L-12.538,5.388l0.342,-0.372c0.049,-0.053,0.093,-0.101,0.131,-0.145s0.071,-0.086,0.099,-0.128c0.026,-0.042,0.047,-0.084,0.062,-0.125c0.015,-0.043,0.021,-0.088,0.021,-0.138c0,-0.038,-0.005,-0.072,-0.017,-0.102s-0.027,-0.054,-0.047,-0.075c-0.021,-0.02,-0.045,-0.035,-0.073,-0.046s-0.06,-0.016,-0.094,-0.016c-0.062,0,-0.118,0.013,-0.167,0.038c-0.051,0.024,-0.098,0.057,-0.143,0.096l-0.1,-0.116c0.025,-0.023,0.055,-0.046,0.084,-0.065c0.029,-0.021,0.063,-0.039,0.097,-0.054s0.071,-0.026,0.109,-0.036c0.038,-0.008,0.079,-0.013,0.121,-0.013c0.063,0,0.119,0.009,0.169,0.026c0.051,0.018,0.094,0.043,0.129,0.076c0.035,0.032,0.063,0.072,0.082,0.119c0.019,0.048,0.028,0.101,0.028,0.16c0,0.056,-0.009,0.108,-0.026,0.158c-0.017,0.05,-0.041,0.1,-0.07,0.148c-0.031,0.048,-0.066,0.097,-0.109,0.146c-0.041,0.049,-0.087,0.1,-0.136,0.152L-12.32,5.37l0,0.008l0.673,0L-11.647,5.54z"/>
</g>
</g>
</g>
</g>
</g>
<g id="connector1pin">
<path fill="#787878" d="M9.9,7.766c-0.193,0,-0.35,-0.157,-0.35,-0.35l0,-7.2c0,-0.193,0.156,-0.35,0.35,-0.35s0.35,0.157,0.35,0.35l0,7.2C10.249,7.609,10.093,7.766,9.9,7.766z"/>
</g>
<g id="connector1terminal">
<polygon fill="none" points="9.9,0.216,9.901,0.216,9.901,0.216"/>
</g>
<g transform="matrix(1, 0, 0, 1, 3.429, 1.3462)">
<g>
<g transform="rotate(270)">
<g>
<g enable-background="new    ">
<path fill="#787878" d="M-2.616,5.54l-0.172,0L-2.788,4.648c0,-0.028,0,-0.058,0,-0.09s0.001,-0.063,0.002,-0.095c0.001,-0.032,0.002,-0.063,0.003,-0.092c0.001,-0.028,0.002,-0.054,0.002,-0.076c-0.011,0.012,-0.021,0.021,-0.029,0.03s-0.017,0.017,-0.026,0.024s-0.018,0.016,-0.028,0.025c-0.01,0.008,-0.021,0.019,-0.035,0.03l-0.145,0.118l-0.094,-0.12l0.374,-0.292l0.146,0L-2.618,5.54z"/>
</g>
</g>
</g>
</g>
</g>
<g>
<path d="M0.18,13.536l1.08,-2.521l1.44,1.438L0.18,13.536z"/>
</g>
<g>
<path d="M0.54,16.776l1.08,-2.521l1.438,1.438L0.54,16.776z"/>
</g>
</g>
</g></g><g partID='95060'><line stroke-linecap='round' stroke='#33ffc5' x1='119.376' y1='147.6' x2='176.976' y2='147.6' stroke-width='0.4' /></g><g partID='95080'><line stroke-linecap='round' stroke='#33ffc5' x1='61.7759' y1='147.6' x2='119.376' y2='147.6' stroke-width='0.4' /></g><g partID='90050'><line stroke-linecap='round' stroke='#404040' x1='11.4758' y1='10.7496' x2='11.3759' y2='25.2' stroke-width='0.699998' /></g><g partID='90060'><line stroke-linecap='round' stroke='#404040' x1='104.976' y1='32.4' x2='105.002' y2='10.7496' stroke-width='0.699998' /></g><g partID='90110'><line stroke-linecap='round' stroke='#404040' x1='105.002' y1='10.7496' x2='11.4758' y2='10.7496' stroke-width='0.699998' /></g><g partID='90320'><line stroke-linecap='round' stroke='#404040' x1='177.053' y1='39.6504' x2='176.976' y2='89.9998' stroke-width='0.699998' /></g><g partID='90330'><line stroke-linecap='round' stroke='#404040' x1='104.976' y1='39.6' x2='177.053' y2='39.6504' stroke-width='0.699998' /></g><g partID='90400'><line stroke-linecap='round' stroke='#404040' x1='119.452' y1='46.8756' x2='104.976' y2='46.8' stroke-width='0.699998' /></g><g partID='90410'><line stroke-linecap='round' stroke='#404040' x1='119.376' y1='89.9998' x2='119.452' y2='46.8756' stroke-width='0.699998' /></g><g partID='90480'><line stroke-linecap='round' stroke='#404040' x1='112.227' y1='53.9001' x2='104.976' y2='53.9999' stroke-width='0.699998' /></g><g partID='90540'><line stroke-linecap='round' stroke='#404040' x1='112.227' y1='75.5757' x2='112.227' y2='53.9001' stroke-width='0.699998' /></g><g partID='90790'><line stroke-linecap='round' stroke='#404040' x1='61.8515' y1='75.5757' x2='112.227' y2='75.5757' stroke-width='0.699998' /></g><g partID='90490'><line stroke-linecap='round' stroke='#404040' x1='61.7759' y1='89.9998' x2='61.8515' y2='75.5757' stroke-width='0.699998' /></g><g partID='90970'><line stroke-linecap='round' stroke='#404040' x1='11.4758' y1='147.627' x2='176.976' y2='147.6' stroke-width='0.699998' /></g><g partID='90980'><line stroke-linecap='round' stroke='#404040' x1='11.3759' y1='54.0002' x2='11.4758' y2='147.627' stroke-width='0.699998' /></g><circle  fill="black" cx="11.3759" cy="54.0002" r="1.44" stroke-width="0" stroke="none" /><g partID='91270'><line stroke-linecap='round' stroke='#404040' x1='32.9507' y1='53.9001' x2='11.3759' y2='54.0002' stroke-width='0.699998' /></g><circle  fill="black" cx="11.3759" cy="54.0002" r="1.44" stroke-width="0" stroke="none" /><g partID='91280'><line stroke-linecap='round' stroke='#404040' x1='32.9759' y1='53.9999' x2='32.9507' y2='53.9001' stroke-width='0.699998' /></g><g partID='91610'><line stroke-linecap='round' stroke='#404040' x1='176.976' y1='118.8' x2='176.976' y2='126' stroke-width='0.699998' /></g><g partID='91660'><line stroke-linecap='round' stroke='#404040' x1='119.376' y1='118.8' x2='119.376' y2='126' stroke-width='0.699998' /></g><g partID='91710'><line stroke-linecap='round' stroke='#404040' x1='61.7759' y1='118.8' x2='61.7759' y2='126' stroke-width='0.699998' /></g><g partID='57780' id='partLabel'><g transform='translate(45.3759,7.2)' ><g transform='matrix(0,-1,1,0,0,0)'  ><g font-size='5' font-style='normal' font-weight='normal' fill='#000000' font-family="'DroidSans'" id='schematicLabel' fill-opacity='1' stroke='none' ><text x='0' y='3.75'>U1</text></g></g></g></g><g partID='65480' id='partLabel'><g transform='translate(107.337,89.6883)' ><g font-size='5' font-style='normal' font-weight='normal' fill='#000000' font-family="'DroidSans'" id='schematicLabel' fill-opacity='1' stroke='none' ><text x='0' y='3.75'>R2</text><text x='0' y='8.75'>220&#x3a9;</text></g></g></g><g partID='65500' id='partLabel'><g transform='translate(48.4909,88.65)' ><g font-size='5' font-style='normal' font-weight='normal' fill='#000000' font-family="'DroidSans'" id='schematicLabel' fill-opacity='1' stroke='none' ><text x='0' y='3.75'>R3</text><text x='0' y='8.75'>220&#x3a9;</text></g></g></g><g partID='83510' id='partLabel'><g transform='translate(65.5554,114.584)' ><g font-size='5' font-style='normal' font-weight='normal' fill='#000000' font-family="'DroidSans'" id='schematicLabel' fill-opacity='1' stroke='none' ><text x='0' y='3.75'>LED3</text><text x='0' y='8.75'>Green (555nm)</text></g></g></g><g partID='83730' id='partLabel'><g transform='translate(180.755,114.584)' ><g font-size='5' font-style='normal' font-weight='normal' fill='#000000' font-family="'DroidSans'" id='schematicLabel' fill-opacity='1' stroke='none' ><text x='0' y='3.75'>LED1</text><text x='0' y='8.75'>Red (633nm)</text></g></g></g><g partID='70510' id='partLabel'><g transform='translate(123.155,114.584)' ><g font-size='5' font-style='normal' font-weight='normal' fill='#000000' font-family="'DroidSans'" id='schematicLabel' fill-opacity='1' stroke='none' ><text x='0' y='3.75'>LED2</text><text x='0' y='8.75'>Yellow (595nm)</text></g></g></g><g partID='65410' id='partLabel'><g transform='translate(191.726,90.1037)' ><g font-size='5' font-style='normal' font-weight='normal' fill='#000000' font-family="'DroidSans'" id='schematicLabel' fill-opacity='1' stroke='none' ><text x='0' y='3.75'>R1</text><text x='0' y='8.75'>220&#x3a9;</text></g></g></g><g partID='76190' id='partLabel'><g transform='translate(26.126,17.0238)' ><g font-size='5' font-style='normal' font-weight='normal' fill='#000000' font-family="'DroidSans'" id='schematicLabel' fill-opacity='1' stroke='none' ><text x='0' y='3.75'>VCC1</text><text x='0' y='8.75'>3V</text></g></g></g></svg>