G04 #@! TF.GenerationSoftware,KiCad,Pcbnew,5.0.2+dfsg1-1*
G04 #@! TF.CreationDate,2019-10-14T23:09:41+02:00*
G04 #@! TF.ProjectId,NOMAS_semaforos,4e4f4d41-535f-4736-956d-61666f726f73,rev?*
G04 #@! TF.SameCoordinates,Original*
G04 #@! TF.FileFunction,Soldermask,Top*
G04 #@! TF.FilePolarity,Negative*
%FSLAX46Y46*%
G04 Gerber Fmt 4.6, Leading zero omitted, Abs format (unit mm)*
G04 Created by KiCad (PCBNEW 5.0.2+dfsg1-1) date lun 14 oct 2019 23:09:41 CEST*
%MOMM*%
%LPD*%
G01*
G04 APERTURE LIST*
%ADD10C,0.010000*%
%ADD11C,0.100000*%
G04 APERTURE END LIST*
D10*
G04 #@! TO.C,Ref\002A\002A*
G36*
X158860798Y-89817780D02*
X158863073Y-90114981D01*
X158863664Y-90383505D01*
X158862667Y-90611983D01*
X158860175Y-90789046D01*
X158856281Y-90903324D01*
X158851519Y-90943258D01*
X158807258Y-90955377D01*
X158691144Y-90981123D01*
X158514496Y-91018270D01*
X158288631Y-91064593D01*
X158024866Y-91117865D01*
X157734518Y-91175862D01*
X157428905Y-91236355D01*
X157119344Y-91297121D01*
X156817153Y-91355932D01*
X156533648Y-91410564D01*
X156280148Y-91458789D01*
X156067968Y-91498382D01*
X155908428Y-91527118D01*
X155812844Y-91542770D01*
X155792050Y-91545000D01*
X155771219Y-91525621D01*
X155756120Y-91461235D01*
X155746038Y-91342467D01*
X155740259Y-91159944D01*
X155738070Y-90904291D01*
X155738000Y-90835371D01*
X155738000Y-90125742D01*
X157293750Y-89419311D01*
X158849500Y-88712879D01*
X158860798Y-89817780D01*
X158860798Y-89817780D01*
G37*
X158860798Y-89817780D02*
X158863073Y-90114981D01*
X158863664Y-90383505D01*
X158862667Y-90611983D01*
X158860175Y-90789046D01*
X158856281Y-90903324D01*
X158851519Y-90943258D01*
X158807258Y-90955377D01*
X158691144Y-90981123D01*
X158514496Y-91018270D01*
X158288631Y-91064593D01*
X158024866Y-91117865D01*
X157734518Y-91175862D01*
X157428905Y-91236355D01*
X157119344Y-91297121D01*
X156817153Y-91355932D01*
X156533648Y-91410564D01*
X156280148Y-91458789D01*
X156067968Y-91498382D01*
X155908428Y-91527118D01*
X155812844Y-91542770D01*
X155792050Y-91545000D01*
X155771219Y-91525621D01*
X155756120Y-91461235D01*
X155746038Y-91342467D01*
X155740259Y-91159944D01*
X155738070Y-90904291D01*
X155738000Y-90835371D01*
X155738000Y-90125742D01*
X157293750Y-89419311D01*
X158849500Y-88712879D01*
X158860798Y-89817780D01*
G36*
X157724655Y-91926661D02*
X158096687Y-91928553D01*
X158433284Y-91931542D01*
X158726135Y-91935495D01*
X158966927Y-91940277D01*
X159147349Y-91945755D01*
X159259089Y-91951794D01*
X159294085Y-91957750D01*
X159298099Y-92004801D01*
X159309718Y-92130091D01*
X159328361Y-92327590D01*
X159353443Y-92591267D01*
X159384382Y-92915093D01*
X159420594Y-93293035D01*
X159461497Y-93719065D01*
X159506506Y-94187152D01*
X159555040Y-94691264D01*
X159606514Y-95225373D01*
X159660346Y-95783446D01*
X159715952Y-96359455D01*
X159772750Y-96947368D01*
X159830156Y-97541155D01*
X159887586Y-98134786D01*
X159944459Y-98722229D01*
X160000190Y-99297456D01*
X160054196Y-99854434D01*
X160105895Y-100387135D01*
X160154703Y-100889527D01*
X160200037Y-101355580D01*
X160241314Y-101779263D01*
X160277950Y-102154546D01*
X160309363Y-102475399D01*
X160334969Y-102735792D01*
X160354186Y-102929693D01*
X160366429Y-103051072D01*
X160370750Y-103091417D01*
X160393046Y-103271334D01*
X158204269Y-103271334D01*
X158178441Y-103027917D01*
X158165121Y-102891209D01*
X158147589Y-102695502D01*
X158128058Y-102466218D01*
X158108742Y-102228780D01*
X158107494Y-102213000D01*
X158088403Y-101942069D01*
X158072683Y-101743458D01*
X158049054Y-101606098D01*
X158006236Y-101518920D01*
X157932950Y-101470855D01*
X157817918Y-101450834D01*
X157649859Y-101447787D01*
X157417494Y-101450646D01*
X157331028Y-101451000D01*
X156639669Y-101451000D01*
X156589935Y-102160084D01*
X156571564Y-102413491D01*
X156553120Y-102652898D01*
X156536189Y-102858771D01*
X156522354Y-103011577D01*
X156516128Y-103070250D01*
X156492055Y-103271334D01*
X154251145Y-103271334D01*
X154276121Y-103091417D01*
X154284079Y-103021764D01*
X154299462Y-102875178D01*
X154321674Y-102657754D01*
X154350121Y-102375587D01*
X154384208Y-102034773D01*
X154423338Y-101641407D01*
X154466918Y-101201584D01*
X154514351Y-100721400D01*
X154565043Y-100206949D01*
X154618398Y-99664328D01*
X154621701Y-99630667D01*
X156838666Y-99630667D01*
X157346666Y-99630667D01*
X157576242Y-99628198D01*
X157730886Y-99620123D01*
X157820208Y-99605441D01*
X157853817Y-99583152D01*
X157854699Y-99577750D01*
X157851059Y-99522378D01*
X157840631Y-99391372D01*
X157824180Y-99193425D01*
X157802471Y-98937232D01*
X157776267Y-98631486D01*
X157746334Y-98284884D01*
X157713438Y-97906118D01*
X157678342Y-97503883D01*
X157641811Y-97086873D01*
X157604610Y-96663784D01*
X157567504Y-96243308D01*
X157531257Y-95834140D01*
X157496635Y-95444975D01*
X157464403Y-95084507D01*
X157435324Y-94761430D01*
X157410163Y-94484439D01*
X157389687Y-94262228D01*
X157374658Y-94103490D01*
X157365842Y-94016921D01*
X157364807Y-94008380D01*
X157338741Y-93891538D01*
X157303042Y-93842092D01*
X157291501Y-93842333D01*
X157277419Y-93882175D01*
X157259377Y-93994677D01*
X157237226Y-94181454D01*
X157210814Y-94444123D01*
X157179990Y-94784298D01*
X157144604Y-95203596D01*
X157104504Y-95703633D01*
X157059540Y-96286024D01*
X157043253Y-96501286D01*
X157007930Y-96973547D01*
X156974521Y-97426550D01*
X156943589Y-97852248D01*
X156915697Y-98242595D01*
X156891408Y-98589547D01*
X156871283Y-98885057D01*
X156855886Y-99121080D01*
X156845779Y-99289570D01*
X156841525Y-99382480D01*
X156841444Y-99387250D01*
X156838666Y-99630667D01*
X154621701Y-99630667D01*
X154673821Y-99099632D01*
X154730718Y-98518955D01*
X154788492Y-97928393D01*
X154846548Y-97334042D01*
X154904292Y-96741997D01*
X154961128Y-96158353D01*
X155016462Y-95589205D01*
X155069697Y-95040648D01*
X155120238Y-94518779D01*
X155167491Y-94029692D01*
X155210860Y-93579483D01*
X155249750Y-93174246D01*
X155283566Y-92820078D01*
X155311713Y-92523073D01*
X155333595Y-92289327D01*
X155348617Y-92124936D01*
X155356185Y-92035993D01*
X155357000Y-92022269D01*
X155357000Y-91926000D01*
X157325500Y-91926000D01*
X157724655Y-91926661D01*
X157724655Y-91926661D01*
G37*
X157724655Y-91926661D02*
X158096687Y-91928553D01*
X158433284Y-91931542D01*
X158726135Y-91935495D01*
X158966927Y-91940277D01*
X159147349Y-91945755D01*
X159259089Y-91951794D01*
X159294085Y-91957750D01*
X159298099Y-92004801D01*
X159309718Y-92130091D01*
X159328361Y-92327590D01*
X159353443Y-92591267D01*
X159384382Y-92915093D01*
X159420594Y-93293035D01*
X159461497Y-93719065D01*
X159506506Y-94187152D01*
X159555040Y-94691264D01*
X159606514Y-95225373D01*
X159660346Y-95783446D01*
X159715952Y-96359455D01*
X159772750Y-96947368D01*
X159830156Y-97541155D01*
X159887586Y-98134786D01*
X159944459Y-98722229D01*
X160000190Y-99297456D01*
X160054196Y-99854434D01*
X160105895Y-100387135D01*
X160154703Y-100889527D01*
X160200037Y-101355580D01*
X160241314Y-101779263D01*
X160277950Y-102154546D01*
X160309363Y-102475399D01*
X160334969Y-102735792D01*
X160354186Y-102929693D01*
X160366429Y-103051072D01*
X160370750Y-103091417D01*
X160393046Y-103271334D01*
X158204269Y-103271334D01*
X158178441Y-103027917D01*
X158165121Y-102891209D01*
X158147589Y-102695502D01*
X158128058Y-102466218D01*
X158108742Y-102228780D01*
X158107494Y-102213000D01*
X158088403Y-101942069D01*
X158072683Y-101743458D01*
X158049054Y-101606098D01*
X158006236Y-101518920D01*
X157932950Y-101470855D01*
X157817918Y-101450834D01*
X157649859Y-101447787D01*
X157417494Y-101450646D01*
X157331028Y-101451000D01*
X156639669Y-101451000D01*
X156589935Y-102160084D01*
X156571564Y-102413491D01*
X156553120Y-102652898D01*
X156536189Y-102858771D01*
X156522354Y-103011577D01*
X156516128Y-103070250D01*
X156492055Y-103271334D01*
X154251145Y-103271334D01*
X154276121Y-103091417D01*
X154284079Y-103021764D01*
X154299462Y-102875178D01*
X154321674Y-102657754D01*
X154350121Y-102375587D01*
X154384208Y-102034773D01*
X154423338Y-101641407D01*
X154466918Y-101201584D01*
X154514351Y-100721400D01*
X154565043Y-100206949D01*
X154618398Y-99664328D01*
X154621701Y-99630667D01*
X156838666Y-99630667D01*
X157346666Y-99630667D01*
X157576242Y-99628198D01*
X157730886Y-99620123D01*
X157820208Y-99605441D01*
X157853817Y-99583152D01*
X157854699Y-99577750D01*
X157851059Y-99522378D01*
X157840631Y-99391372D01*
X157824180Y-99193425D01*
X157802471Y-98937232D01*
X157776267Y-98631486D01*
X157746334Y-98284884D01*
X157713438Y-97906118D01*
X157678342Y-97503883D01*
X157641811Y-97086873D01*
X157604610Y-96663784D01*
X157567504Y-96243308D01*
X157531257Y-95834140D01*
X157496635Y-95444975D01*
X157464403Y-95084507D01*
X157435324Y-94761430D01*
X157410163Y-94484439D01*
X157389687Y-94262228D01*
X157374658Y-94103490D01*
X157365842Y-94016921D01*
X157364807Y-94008380D01*
X157338741Y-93891538D01*
X157303042Y-93842092D01*
X157291501Y-93842333D01*
X157277419Y-93882175D01*
X157259377Y-93994677D01*
X157237226Y-94181454D01*
X157210814Y-94444123D01*
X157179990Y-94784298D01*
X157144604Y-95203596D01*
X157104504Y-95703633D01*
X157059540Y-96286024D01*
X157043253Y-96501286D01*
X157007930Y-96973547D01*
X156974521Y-97426550D01*
X156943589Y-97852248D01*
X156915697Y-98242595D01*
X156891408Y-98589547D01*
X156871283Y-98885057D01*
X156855886Y-99121080D01*
X156845779Y-99289570D01*
X156841525Y-99382480D01*
X156841444Y-99387250D01*
X156838666Y-99630667D01*
X154621701Y-99630667D01*
X154673821Y-99099632D01*
X154730718Y-98518955D01*
X154788492Y-97928393D01*
X154846548Y-97334042D01*
X154904292Y-96741997D01*
X154961128Y-96158353D01*
X155016462Y-95589205D01*
X155069697Y-95040648D01*
X155120238Y-94518779D01*
X155167491Y-94029692D01*
X155210860Y-93579483D01*
X155249750Y-93174246D01*
X155283566Y-92820078D01*
X155311713Y-92523073D01*
X155333595Y-92289327D01*
X155348617Y-92124936D01*
X155356185Y-92035993D01*
X155357000Y-92022269D01*
X155357000Y-91926000D01*
X157325500Y-91926000D01*
X157724655Y-91926661D01*
G36*
X148086633Y-92042417D02*
X148095737Y-92101916D01*
X148115522Y-92238669D01*
X148145058Y-92446061D01*
X148183417Y-92717481D01*
X148229671Y-93046313D01*
X148282892Y-93425945D01*
X148342152Y-93849762D01*
X148406523Y-94311152D01*
X148475076Y-94803501D01*
X148546883Y-95320195D01*
X148568169Y-95473541D01*
X148642482Y-96005467D01*
X148713273Y-96505187D01*
X148779695Y-96967105D01*
X148840899Y-97385624D01*
X148896037Y-97755149D01*
X148944263Y-98070084D01*
X148984727Y-98324832D01*
X149016583Y-98513797D01*
X149038983Y-98631383D01*
X149051079Y-98671993D01*
X149052345Y-98669708D01*
X149061889Y-98609865D01*
X149082135Y-98472779D01*
X149112145Y-98265073D01*
X149150983Y-97993366D01*
X149197711Y-97664280D01*
X149251393Y-97284436D01*
X149311091Y-96860454D01*
X149375868Y-96398955D01*
X149444787Y-95906560D01*
X149516910Y-95389890D01*
X149537996Y-95238584D01*
X149999457Y-91926000D01*
X153536666Y-91926000D01*
X153536666Y-103271334D01*
X151420434Y-103271334D01*
X151409633Y-99302948D01*
X151398833Y-95334563D01*
X150767275Y-99228865D01*
X150675641Y-99793447D01*
X150587598Y-100335030D01*
X150504119Y-100847671D01*
X150426179Y-101325425D01*
X150354753Y-101762348D01*
X150290815Y-102152498D01*
X150235339Y-102489930D01*
X150189299Y-102768700D01*
X150153670Y-102982866D01*
X150129426Y-103126483D01*
X150117542Y-103193607D01*
X150116755Y-103197250D01*
X150105008Y-103220479D01*
X150076502Y-103238302D01*
X150021247Y-103251427D01*
X149929249Y-103260561D01*
X149790517Y-103266410D01*
X149595060Y-103269682D01*
X149332885Y-103271084D01*
X149069770Y-103271334D01*
X148041748Y-103271334D01*
X147999781Y-103027917D01*
X147986473Y-102950667D01*
X147959901Y-102796364D01*
X147921164Y-102571392D01*
X147871362Y-102282137D01*
X147811593Y-101934985D01*
X147742957Y-101536321D01*
X147666554Y-101092531D01*
X147583483Y-100610001D01*
X147494843Y-100095115D01*
X147401734Y-99554259D01*
X147307657Y-99007775D01*
X146657500Y-95231050D01*
X146646702Y-99251192D01*
X146635905Y-103271334D01*
X144562000Y-103271334D01*
X144562000Y-91926000D01*
X148065083Y-91926000D01*
X148086633Y-92042417D01*
X148086633Y-92042417D01*
G37*
X148086633Y-92042417D02*
X148095737Y-92101916D01*
X148115522Y-92238669D01*
X148145058Y-92446061D01*
X148183417Y-92717481D01*
X148229671Y-93046313D01*
X148282892Y-93425945D01*
X148342152Y-93849762D01*
X148406523Y-94311152D01*
X148475076Y-94803501D01*
X148546883Y-95320195D01*
X148568169Y-95473541D01*
X148642482Y-96005467D01*
X148713273Y-96505187D01*
X148779695Y-96967105D01*
X148840899Y-97385624D01*
X148896037Y-97755149D01*
X148944263Y-98070084D01*
X148984727Y-98324832D01*
X149016583Y-98513797D01*
X149038983Y-98631383D01*
X149051079Y-98671993D01*
X149052345Y-98669708D01*
X149061889Y-98609865D01*
X149082135Y-98472779D01*
X149112145Y-98265073D01*
X149150983Y-97993366D01*
X149197711Y-97664280D01*
X149251393Y-97284436D01*
X149311091Y-96860454D01*
X149375868Y-96398955D01*
X149444787Y-95906560D01*
X149516910Y-95389890D01*
X149537996Y-95238584D01*
X149999457Y-91926000D01*
X153536666Y-91926000D01*
X153536666Y-103271334D01*
X151420434Y-103271334D01*
X151409633Y-99302948D01*
X151398833Y-95334563D01*
X150767275Y-99228865D01*
X150675641Y-99793447D01*
X150587598Y-100335030D01*
X150504119Y-100847671D01*
X150426179Y-101325425D01*
X150354753Y-101762348D01*
X150290815Y-102152498D01*
X150235339Y-102489930D01*
X150189299Y-102768700D01*
X150153670Y-102982866D01*
X150129426Y-103126483D01*
X150117542Y-103193607D01*
X150116755Y-103197250D01*
X150105008Y-103220479D01*
X150076502Y-103238302D01*
X150021247Y-103251427D01*
X149929249Y-103260561D01*
X149790517Y-103266410D01*
X149595060Y-103269682D01*
X149332885Y-103271084D01*
X149069770Y-103271334D01*
X148041748Y-103271334D01*
X147999781Y-103027917D01*
X147986473Y-102950667D01*
X147959901Y-102796364D01*
X147921164Y-102571392D01*
X147871362Y-102282137D01*
X147811593Y-101934985D01*
X147742957Y-101536321D01*
X147666554Y-101092531D01*
X147583483Y-100610001D01*
X147494843Y-100095115D01*
X147401734Y-99554259D01*
X147307657Y-99007775D01*
X146657500Y-95231050D01*
X146646702Y-99251192D01*
X146635905Y-103271334D01*
X144562000Y-103271334D01*
X144562000Y-91926000D01*
X148065083Y-91926000D01*
X148086633Y-92042417D01*
G36*
X132888568Y-91927417D02*
X133197566Y-91931555D01*
X133440175Y-91938242D01*
X133611412Y-91947310D01*
X133706293Y-91958588D01*
X133724666Y-91967203D01*
X133732666Y-92020318D01*
X133755513Y-92147654D01*
X133791477Y-92340405D01*
X133838829Y-92589765D01*
X133895841Y-92886926D01*
X133960782Y-93223081D01*
X134031924Y-93589426D01*
X134107537Y-93977151D01*
X134185892Y-94377452D01*
X134265260Y-94781521D01*
X134343911Y-95180552D01*
X134420116Y-95565737D01*
X134492146Y-95928271D01*
X134558272Y-96259347D01*
X134616764Y-96550158D01*
X134665894Y-96791897D01*
X134703931Y-96975757D01*
X134729147Y-97092933D01*
X134739015Y-97133000D01*
X134746388Y-97113054D01*
X134753222Y-97013100D01*
X134759445Y-96837796D01*
X134764982Y-96591800D01*
X134769759Y-96279770D01*
X134773701Y-95906363D01*
X134776734Y-95476237D01*
X134778785Y-94994050D01*
X134779657Y-94582417D01*
X134783000Y-91926000D01*
X136984333Y-91926000D01*
X136984333Y-103271334D01*
X135865352Y-103271334D01*
X135527342Y-103270962D01*
X135264409Y-103269433D01*
X135066966Y-103266123D01*
X134925423Y-103260409D01*
X134830195Y-103251668D01*
X134771692Y-103239276D01*
X134740327Y-103222612D01*
X134726512Y-103201051D01*
X134725331Y-103197250D01*
X134713485Y-103143828D01*
X134686375Y-103014570D01*
X134645463Y-102816639D01*
X134592212Y-102557195D01*
X134528084Y-102243401D01*
X134454543Y-101882419D01*
X134373051Y-101481410D01*
X134285071Y-101047538D01*
X134192067Y-100587963D01*
X134161561Y-100437030D01*
X133618833Y-97750893D01*
X133607943Y-100511113D01*
X133597053Y-103271334D01*
X131311666Y-103271334D01*
X131311666Y-91926000D01*
X132518166Y-91926000D01*
X132888568Y-91927417D01*
X132888568Y-91927417D01*
G37*
X132888568Y-91927417D02*
X133197566Y-91931555D01*
X133440175Y-91938242D01*
X133611412Y-91947310D01*
X133706293Y-91958588D01*
X133724666Y-91967203D01*
X133732666Y-92020318D01*
X133755513Y-92147654D01*
X133791477Y-92340405D01*
X133838829Y-92589765D01*
X133895841Y-92886926D01*
X133960782Y-93223081D01*
X134031924Y-93589426D01*
X134107537Y-93977151D01*
X134185892Y-94377452D01*
X134265260Y-94781521D01*
X134343911Y-95180552D01*
X134420116Y-95565737D01*
X134492146Y-95928271D01*
X134558272Y-96259347D01*
X134616764Y-96550158D01*
X134665894Y-96791897D01*
X134703931Y-96975757D01*
X134729147Y-97092933D01*
X134739015Y-97133000D01*
X134746388Y-97113054D01*
X134753222Y-97013100D01*
X134759445Y-96837796D01*
X134764982Y-96591800D01*
X134769759Y-96279770D01*
X134773701Y-95906363D01*
X134776734Y-95476237D01*
X134778785Y-94994050D01*
X134779657Y-94582417D01*
X134783000Y-91926000D01*
X136984333Y-91926000D01*
X136984333Y-103271334D01*
X135865352Y-103271334D01*
X135527342Y-103270962D01*
X135264409Y-103269433D01*
X135066966Y-103266123D01*
X134925423Y-103260409D01*
X134830195Y-103251668D01*
X134771692Y-103239276D01*
X134740327Y-103222612D01*
X134726512Y-103201051D01*
X134725331Y-103197250D01*
X134713485Y-103143828D01*
X134686375Y-103014570D01*
X134645463Y-102816639D01*
X134592212Y-102557195D01*
X134528084Y-102243401D01*
X134454543Y-101882419D01*
X134373051Y-101481410D01*
X134285071Y-101047538D01*
X134192067Y-100587963D01*
X134161561Y-100437030D01*
X133618833Y-97750893D01*
X133607943Y-100511113D01*
X133597053Y-103271334D01*
X131311666Y-103271334D01*
X131311666Y-91926000D01*
X132518166Y-91926000D01*
X132888568Y-91927417D01*
G36*
X125224481Y-88582671D02*
X125521883Y-88585518D01*
X125780275Y-88589958D01*
X125989558Y-88595742D01*
X126139634Y-88602619D01*
X126220406Y-88610341D01*
X126231666Y-88614617D01*
X126223588Y-88661364D01*
X126200399Y-88783170D01*
X126163666Y-88972089D01*
X126114955Y-89220172D01*
X126055834Y-89519471D01*
X125987869Y-89862039D01*
X125912629Y-90239928D01*
X125831678Y-90645190D01*
X125808333Y-90761834D01*
X125726068Y-91173340D01*
X125649076Y-91559719D01*
X125578926Y-91913016D01*
X125517183Y-92225279D01*
X125465416Y-92488556D01*
X125425192Y-92694895D01*
X125398077Y-92836342D01*
X125385639Y-92904946D01*
X125385000Y-92910005D01*
X125425108Y-92920174D01*
X125536583Y-92927864D01*
X125706153Y-92932691D01*
X125920543Y-92934269D01*
X126156120Y-92932372D01*
X126927241Y-92920834D01*
X127363563Y-90764418D01*
X127447711Y-90349552D01*
X127527041Y-89960399D01*
X127599939Y-89604735D01*
X127664795Y-89290332D01*
X127719994Y-89024966D01*
X127763926Y-88816410D01*
X127794978Y-88672437D01*
X127811537Y-88600823D01*
X127813666Y-88594223D01*
X127857797Y-88591166D01*
X127976257Y-88589053D01*
X128158714Y-88587904D01*
X128394835Y-88587739D01*
X128674289Y-88588580D01*
X128986741Y-88590445D01*
X129137056Y-88591638D01*
X130446665Y-88602834D01*
X129591177Y-92942000D01*
X130465000Y-92942000D01*
X130465000Y-95101000D01*
X129164710Y-95101000D01*
X129050405Y-95683084D01*
X129007288Y-95900177D01*
X128968359Y-96091650D01*
X128937239Y-96240006D01*
X128917553Y-96327747D01*
X128914530Y-96339250D01*
X128912152Y-96370493D01*
X128935361Y-96391509D01*
X128997336Y-96404293D01*
X129111256Y-96410841D01*
X129290298Y-96413147D01*
X129403813Y-96413334D01*
X129914666Y-96413334D01*
X129914666Y-98572334D01*
X129195000Y-98572334D01*
X128958829Y-98572983D01*
X128755218Y-98574783D01*
X128597914Y-98577511D01*
X128500663Y-98580943D01*
X128475333Y-98584008D01*
X128467262Y-98626486D01*
X128444043Y-98744508D01*
X128407163Y-98930599D01*
X128358112Y-99177286D01*
X128298378Y-99477098D01*
X128229449Y-99822560D01*
X128152814Y-100206200D01*
X128069961Y-100620544D01*
X128009666Y-100921833D01*
X127923377Y-101353076D01*
X127842274Y-101758794D01*
X127767845Y-102131514D01*
X127701579Y-102463763D01*
X127644964Y-102748069D01*
X127599490Y-102976958D01*
X127566643Y-103142958D01*
X127547914Y-103238594D01*
X127544000Y-103259659D01*
X127503353Y-103262522D01*
X127388162Y-103265131D01*
X127208548Y-103267396D01*
X126974633Y-103269229D01*
X126696538Y-103270540D01*
X126384386Y-103271240D01*
X126216695Y-103271334D01*
X124889390Y-103271334D01*
X125348861Y-100975695D01*
X125434716Y-100545794D01*
X125515352Y-100140183D01*
X125589264Y-99766569D01*
X125654942Y-99432658D01*
X125710882Y-99146156D01*
X125755575Y-98914770D01*
X125787515Y-98746205D01*
X125805194Y-98648168D01*
X125808333Y-98626195D01*
X125789244Y-98606252D01*
X125725965Y-98591549D01*
X125609480Y-98581461D01*
X125430774Y-98575364D01*
X125180829Y-98572633D01*
X125031122Y-98572334D01*
X124253911Y-98572334D01*
X123950014Y-100128084D01*
X123872984Y-100522280D01*
X123793843Y-100927024D01*
X123715810Y-101325869D01*
X123642104Y-101702372D01*
X123575943Y-102040087D01*
X123520547Y-102322571D01*
X123490106Y-102477584D01*
X123334095Y-103271334D01*
X122010047Y-103271334D01*
X121684978Y-103271009D01*
X121388898Y-103270088D01*
X121131931Y-103268653D01*
X120924206Y-103266784D01*
X120775847Y-103264562D01*
X120696982Y-103262069D01*
X120686773Y-103260750D01*
X120694833Y-103218447D01*
X120717743Y-103100537D01*
X120754041Y-102914494D01*
X120802265Y-102667791D01*
X120860952Y-102367902D01*
X120928640Y-102022301D01*
X121003867Y-101638460D01*
X121085170Y-101223854D01*
X121144423Y-100921834D01*
X121601298Y-98593500D01*
X121164815Y-98581485D01*
X120728333Y-98569469D01*
X120728333Y-96413334D01*
X121384500Y-96413334D01*
X124697796Y-96413334D01*
X126256943Y-96413334D01*
X126354457Y-95873584D01*
X126393308Y-95659001D01*
X126428538Y-95465270D01*
X126456448Y-95312670D01*
X126473340Y-95221480D01*
X126474110Y-95217417D01*
X126496250Y-95101000D01*
X124938729Y-95101000D01*
X124841749Y-95640750D01*
X124802993Y-95855362D01*
X124767649Y-96049113D01*
X124739439Y-96201717D01*
X124722090Y-96292883D01*
X124721283Y-96296917D01*
X124697796Y-96413334D01*
X121384500Y-96413334D01*
X121609371Y-96411742D01*
X121801033Y-96407350D01*
X121945091Y-96400732D01*
X122027151Y-96392460D01*
X122040666Y-96387183D01*
X122048857Y-96338581D01*
X122071397Y-96222403D01*
X122105238Y-96053931D01*
X122147333Y-95848449D01*
X122167666Y-95750336D01*
X122212375Y-95534105D01*
X122250190Y-95348844D01*
X122278075Y-95209618D01*
X122292993Y-95131493D01*
X122294666Y-95120320D01*
X122255061Y-95112862D01*
X122147152Y-95106741D01*
X121987300Y-95102580D01*
X121791865Y-95101001D01*
X121786666Y-95101000D01*
X121278666Y-95101000D01*
X121278666Y-92942000D01*
X121997526Y-92942000D01*
X122259460Y-92941672D01*
X122448967Y-92939639D01*
X122578285Y-92934329D01*
X122659654Y-92924169D01*
X122705313Y-92907588D01*
X122727502Y-92883013D01*
X122738458Y-92848871D01*
X122738963Y-92846750D01*
X122754133Y-92775668D01*
X122782896Y-92634202D01*
X122823369Y-92431991D01*
X122873668Y-92178676D01*
X122931909Y-91883894D01*
X122996209Y-91557288D01*
X123064683Y-91208495D01*
X123135449Y-90847157D01*
X123206621Y-90482912D01*
X123276317Y-90125401D01*
X123342653Y-89784263D01*
X123403745Y-89469138D01*
X123457709Y-89189665D01*
X123502661Y-88955485D01*
X123536718Y-88776237D01*
X123557996Y-88661561D01*
X123564666Y-88621387D01*
X123605869Y-88610380D01*
X123724972Y-88600861D01*
X123915219Y-88593031D01*
X124169855Y-88587092D01*
X124482124Y-88583244D01*
X124845268Y-88581690D01*
X124898166Y-88581667D01*
X125224481Y-88582671D01*
X125224481Y-88582671D01*
G37*
X125224481Y-88582671D02*
X125521883Y-88585518D01*
X125780275Y-88589958D01*
X125989558Y-88595742D01*
X126139634Y-88602619D01*
X126220406Y-88610341D01*
X126231666Y-88614617D01*
X126223588Y-88661364D01*
X126200399Y-88783170D01*
X126163666Y-88972089D01*
X126114955Y-89220172D01*
X126055834Y-89519471D01*
X125987869Y-89862039D01*
X125912629Y-90239928D01*
X125831678Y-90645190D01*
X125808333Y-90761834D01*
X125726068Y-91173340D01*
X125649076Y-91559719D01*
X125578926Y-91913016D01*
X125517183Y-92225279D01*
X125465416Y-92488556D01*
X125425192Y-92694895D01*
X125398077Y-92836342D01*
X125385639Y-92904946D01*
X125385000Y-92910005D01*
X125425108Y-92920174D01*
X125536583Y-92927864D01*
X125706153Y-92932691D01*
X125920543Y-92934269D01*
X126156120Y-92932372D01*
X126927241Y-92920834D01*
X127363563Y-90764418D01*
X127447711Y-90349552D01*
X127527041Y-89960399D01*
X127599939Y-89604735D01*
X127664795Y-89290332D01*
X127719994Y-89024966D01*
X127763926Y-88816410D01*
X127794978Y-88672437D01*
X127811537Y-88600823D01*
X127813666Y-88594223D01*
X127857797Y-88591166D01*
X127976257Y-88589053D01*
X128158714Y-88587904D01*
X128394835Y-88587739D01*
X128674289Y-88588580D01*
X128986741Y-88590445D01*
X129137056Y-88591638D01*
X130446665Y-88602834D01*
X129591177Y-92942000D01*
X130465000Y-92942000D01*
X130465000Y-95101000D01*
X129164710Y-95101000D01*
X129050405Y-95683084D01*
X129007288Y-95900177D01*
X128968359Y-96091650D01*
X128937239Y-96240006D01*
X128917553Y-96327747D01*
X128914530Y-96339250D01*
X128912152Y-96370493D01*
X128935361Y-96391509D01*
X128997336Y-96404293D01*
X129111256Y-96410841D01*
X129290298Y-96413147D01*
X129403813Y-96413334D01*
X129914666Y-96413334D01*
X129914666Y-98572334D01*
X129195000Y-98572334D01*
X128958829Y-98572983D01*
X128755218Y-98574783D01*
X128597914Y-98577511D01*
X128500663Y-98580943D01*
X128475333Y-98584008D01*
X128467262Y-98626486D01*
X128444043Y-98744508D01*
X128407163Y-98930599D01*
X128358112Y-99177286D01*
X128298378Y-99477098D01*
X128229449Y-99822560D01*
X128152814Y-100206200D01*
X128069961Y-100620544D01*
X128009666Y-100921833D01*
X127923377Y-101353076D01*
X127842274Y-101758794D01*
X127767845Y-102131514D01*
X127701579Y-102463763D01*
X127644964Y-102748069D01*
X127599490Y-102976958D01*
X127566643Y-103142958D01*
X127547914Y-103238594D01*
X127544000Y-103259659D01*
X127503353Y-103262522D01*
X127388162Y-103265131D01*
X127208548Y-103267396D01*
X126974633Y-103269229D01*
X126696538Y-103270540D01*
X126384386Y-103271240D01*
X126216695Y-103271334D01*
X124889390Y-103271334D01*
X125348861Y-100975695D01*
X125434716Y-100545794D01*
X125515352Y-100140183D01*
X125589264Y-99766569D01*
X125654942Y-99432658D01*
X125710882Y-99146156D01*
X125755575Y-98914770D01*
X125787515Y-98746205D01*
X125805194Y-98648168D01*
X125808333Y-98626195D01*
X125789244Y-98606252D01*
X125725965Y-98591549D01*
X125609480Y-98581461D01*
X125430774Y-98575364D01*
X125180829Y-98572633D01*
X125031122Y-98572334D01*
X124253911Y-98572334D01*
X123950014Y-100128084D01*
X123872984Y-100522280D01*
X123793843Y-100927024D01*
X123715810Y-101325869D01*
X123642104Y-101702372D01*
X123575943Y-102040087D01*
X123520547Y-102322571D01*
X123490106Y-102477584D01*
X123334095Y-103271334D01*
X122010047Y-103271334D01*
X121684978Y-103271009D01*
X121388898Y-103270088D01*
X121131931Y-103268653D01*
X120924206Y-103266784D01*
X120775847Y-103264562D01*
X120696982Y-103262069D01*
X120686773Y-103260750D01*
X120694833Y-103218447D01*
X120717743Y-103100537D01*
X120754041Y-102914494D01*
X120802265Y-102667791D01*
X120860952Y-102367902D01*
X120928640Y-102022301D01*
X121003867Y-101638460D01*
X121085170Y-101223854D01*
X121144423Y-100921834D01*
X121601298Y-98593500D01*
X121164815Y-98581485D01*
X120728333Y-98569469D01*
X120728333Y-96413334D01*
X121384500Y-96413334D01*
X124697796Y-96413334D01*
X126256943Y-96413334D01*
X126354457Y-95873584D01*
X126393308Y-95659001D01*
X126428538Y-95465270D01*
X126456448Y-95312670D01*
X126473340Y-95221480D01*
X126474110Y-95217417D01*
X126496250Y-95101000D01*
X124938729Y-95101000D01*
X124841749Y-95640750D01*
X124802993Y-95855362D01*
X124767649Y-96049113D01*
X124739439Y-96201717D01*
X124722090Y-96292883D01*
X124721283Y-96296917D01*
X124697796Y-96413334D01*
X121384500Y-96413334D01*
X121609371Y-96411742D01*
X121801033Y-96407350D01*
X121945091Y-96400732D01*
X122027151Y-96392460D01*
X122040666Y-96387183D01*
X122048857Y-96338581D01*
X122071397Y-96222403D01*
X122105238Y-96053931D01*
X122147333Y-95848449D01*
X122167666Y-95750336D01*
X122212375Y-95534105D01*
X122250190Y-95348844D01*
X122278075Y-95209618D01*
X122292993Y-95131493D01*
X122294666Y-95120320D01*
X122255061Y-95112862D01*
X122147152Y-95106741D01*
X121987300Y-95102580D01*
X121791865Y-95101001D01*
X121786666Y-95101000D01*
X121278666Y-95101000D01*
X121278666Y-92942000D01*
X121997526Y-92942000D01*
X122259460Y-92941672D01*
X122448967Y-92939639D01*
X122578285Y-92934329D01*
X122659654Y-92924169D01*
X122705313Y-92907588D01*
X122727502Y-92883013D01*
X122738458Y-92848871D01*
X122738963Y-92846750D01*
X122754133Y-92775668D01*
X122782896Y-92634202D01*
X122823369Y-92431991D01*
X122873668Y-92178676D01*
X122931909Y-91883894D01*
X122996209Y-91557288D01*
X123064683Y-91208495D01*
X123135449Y-90847157D01*
X123206621Y-90482912D01*
X123276317Y-90125401D01*
X123342653Y-89784263D01*
X123403745Y-89469138D01*
X123457709Y-89189665D01*
X123502661Y-88955485D01*
X123536718Y-88776237D01*
X123557996Y-88661561D01*
X123564666Y-88621387D01*
X123605869Y-88610380D01*
X123724972Y-88600861D01*
X123915219Y-88593031D01*
X124169855Y-88587092D01*
X124482124Y-88583244D01*
X124845268Y-88581690D01*
X124898166Y-88581667D01*
X125224481Y-88582671D01*
G36*
X163784972Y-91826592D02*
X164083045Y-91845536D01*
X164347192Y-91876166D01*
X164549409Y-91916736D01*
X164969300Y-92062688D01*
X165330526Y-92257774D01*
X165635809Y-92505769D01*
X165887869Y-92810446D01*
X166089430Y-93175578D01*
X166243212Y-93604941D01*
X166351938Y-94102308D01*
X166401941Y-94485423D01*
X166421045Y-94684032D01*
X166436328Y-94859646D01*
X166445946Y-94990028D01*
X166448333Y-95044853D01*
X166448333Y-95143334D01*
X164077666Y-95143334D01*
X164077666Y-94718640D01*
X164067360Y-94427857D01*
X164032846Y-94210761D01*
X163968728Y-94058491D01*
X163869612Y-93962183D01*
X163730102Y-93912976D01*
X163580250Y-93901556D01*
X163363887Y-93932242D01*
X163205724Y-94024379D01*
X163105653Y-94178079D01*
X163063567Y-94393456D01*
X163062080Y-94453315D01*
X163092981Y-94664658D01*
X163177385Y-94902234D01*
X163303995Y-95137783D01*
X163378174Y-95244104D01*
X163435706Y-95308349D01*
X163546465Y-95421914D01*
X163701808Y-95576317D01*
X163893093Y-95763080D01*
X164111677Y-95973721D01*
X164348919Y-96199762D01*
X164437560Y-96283585D01*
X164800403Y-96629569D01*
X165105343Y-96929027D01*
X165359254Y-97189955D01*
X165569011Y-97420347D01*
X165741487Y-97628198D01*
X165883556Y-97821502D01*
X166002092Y-98008254D01*
X166103970Y-98196448D01*
X166132529Y-98254834D01*
X166247809Y-98508144D01*
X166333227Y-98731779D01*
X166393840Y-98948355D01*
X166434704Y-99180492D01*
X166460874Y-99450807D01*
X166477407Y-99781918D01*
X166478077Y-99800657D01*
X166475787Y-100434411D01*
X166422658Y-101010659D01*
X166319362Y-101526923D01*
X166166570Y-101980724D01*
X165964953Y-102369583D01*
X165715182Y-102691024D01*
X165687803Y-102719142D01*
X165437016Y-102938339D01*
X165165700Y-103106556D01*
X164861632Y-103227814D01*
X164512588Y-103306135D01*
X164106346Y-103345538D01*
X163763978Y-103352022D01*
X163518840Y-103346411D01*
X163277095Y-103333933D01*
X163064689Y-103316360D01*
X162907568Y-103295461D01*
X162892333Y-103292547D01*
X162430297Y-103164987D01*
X162031280Y-102981145D01*
X161694609Y-102740525D01*
X161419612Y-102442630D01*
X161205617Y-102086964D01*
X161177382Y-102025541D01*
X161093902Y-101823619D01*
X161027593Y-101628096D01*
X160976252Y-101424827D01*
X160937677Y-101199667D01*
X160909665Y-100938471D01*
X160890012Y-100627096D01*
X160876518Y-100251395D01*
X160872017Y-100064584D01*
X160849928Y-99038000D01*
X163094403Y-99038000D01*
X163112626Y-99916417D01*
X163121428Y-100254590D01*
X163133735Y-100519608D01*
X163151961Y-100722976D01*
X163178518Y-100876199D01*
X163215821Y-100990781D01*
X163266281Y-101078227D01*
X163332313Y-101150043D01*
X163379745Y-101189892D01*
X163546976Y-101268111D01*
X163670625Y-101281043D01*
X163861252Y-101260625D01*
X164004335Y-101195660D01*
X164104973Y-101078255D01*
X164168263Y-100900519D01*
X164199303Y-100654560D01*
X164204600Y-100454478D01*
X164197580Y-100227457D01*
X164178593Y-100007017D01*
X164150851Y-99827152D01*
X164141519Y-99787016D01*
X164104345Y-99653535D01*
X164063052Y-99532727D01*
X164011751Y-99417015D01*
X163944555Y-99298821D01*
X163855576Y-99170565D01*
X163738926Y-99024670D01*
X163588718Y-98853556D01*
X163399064Y-98649645D01*
X163164077Y-98405359D01*
X162877868Y-98113120D01*
X162704517Y-97937334D01*
X162365217Y-97591900D01*
X162080714Y-97297108D01*
X161844793Y-97044896D01*
X161651236Y-96827204D01*
X161493828Y-96635972D01*
X161366353Y-96463139D01*
X161262595Y-96300644D01*
X161176338Y-96140428D01*
X161101365Y-95974430D01*
X161031461Y-95794589D01*
X161013221Y-95744209D01*
X160964337Y-95604271D01*
X160929429Y-95488354D01*
X160906244Y-95377678D01*
X160892532Y-95253462D01*
X160886041Y-95096927D01*
X160884518Y-94889292D01*
X160885343Y-94677667D01*
X160894411Y-94295804D01*
X160919681Y-93977194D01*
X160965193Y-93701304D01*
X161034987Y-93447599D01*
X161133103Y-93195543D01*
X161208816Y-93033357D01*
X161415053Y-92705981D01*
X161689296Y-92415915D01*
X162019762Y-92172155D01*
X162394666Y-91983693D01*
X162723000Y-91877708D01*
X162921987Y-91844892D01*
X163180965Y-91825768D01*
X163476453Y-91819835D01*
X163784972Y-91826592D01*
X163784972Y-91826592D01*
G37*
X163784972Y-91826592D02*
X164083045Y-91845536D01*
X164347192Y-91876166D01*
X164549409Y-91916736D01*
X164969300Y-92062688D01*
X165330526Y-92257774D01*
X165635809Y-92505769D01*
X165887869Y-92810446D01*
X166089430Y-93175578D01*
X166243212Y-93604941D01*
X166351938Y-94102308D01*
X166401941Y-94485423D01*
X166421045Y-94684032D01*
X166436328Y-94859646D01*
X166445946Y-94990028D01*
X166448333Y-95044853D01*
X166448333Y-95143334D01*
X164077666Y-95143334D01*
X164077666Y-94718640D01*
X164067360Y-94427857D01*
X164032846Y-94210761D01*
X163968728Y-94058491D01*
X163869612Y-93962183D01*
X163730102Y-93912976D01*
X163580250Y-93901556D01*
X163363887Y-93932242D01*
X163205724Y-94024379D01*
X163105653Y-94178079D01*
X163063567Y-94393456D01*
X163062080Y-94453315D01*
X163092981Y-94664658D01*
X163177385Y-94902234D01*
X163303995Y-95137783D01*
X163378174Y-95244104D01*
X163435706Y-95308349D01*
X163546465Y-95421914D01*
X163701808Y-95576317D01*
X163893093Y-95763080D01*
X164111677Y-95973721D01*
X164348919Y-96199762D01*
X164437560Y-96283585D01*
X164800403Y-96629569D01*
X165105343Y-96929027D01*
X165359254Y-97189955D01*
X165569011Y-97420347D01*
X165741487Y-97628198D01*
X165883556Y-97821502D01*
X166002092Y-98008254D01*
X166103970Y-98196448D01*
X166132529Y-98254834D01*
X166247809Y-98508144D01*
X166333227Y-98731779D01*
X166393840Y-98948355D01*
X166434704Y-99180492D01*
X166460874Y-99450807D01*
X166477407Y-99781918D01*
X166478077Y-99800657D01*
X166475787Y-100434411D01*
X166422658Y-101010659D01*
X166319362Y-101526923D01*
X166166570Y-101980724D01*
X165964953Y-102369583D01*
X165715182Y-102691024D01*
X165687803Y-102719142D01*
X165437016Y-102938339D01*
X165165700Y-103106556D01*
X164861632Y-103227814D01*
X164512588Y-103306135D01*
X164106346Y-103345538D01*
X163763978Y-103352022D01*
X163518840Y-103346411D01*
X163277095Y-103333933D01*
X163064689Y-103316360D01*
X162907568Y-103295461D01*
X162892333Y-103292547D01*
X162430297Y-103164987D01*
X162031280Y-102981145D01*
X161694609Y-102740525D01*
X161419612Y-102442630D01*
X161205617Y-102086964D01*
X161177382Y-102025541D01*
X161093902Y-101823619D01*
X161027593Y-101628096D01*
X160976252Y-101424827D01*
X160937677Y-101199667D01*
X160909665Y-100938471D01*
X160890012Y-100627096D01*
X160876518Y-100251395D01*
X160872017Y-100064584D01*
X160849928Y-99038000D01*
X163094403Y-99038000D01*
X163112626Y-99916417D01*
X163121428Y-100254590D01*
X163133735Y-100519608D01*
X163151961Y-100722976D01*
X163178518Y-100876199D01*
X163215821Y-100990781D01*
X163266281Y-101078227D01*
X163332313Y-101150043D01*
X163379745Y-101189892D01*
X163546976Y-101268111D01*
X163670625Y-101281043D01*
X163861252Y-101260625D01*
X164004335Y-101195660D01*
X164104973Y-101078255D01*
X164168263Y-100900519D01*
X164199303Y-100654560D01*
X164204600Y-100454478D01*
X164197580Y-100227457D01*
X164178593Y-100007017D01*
X164150851Y-99827152D01*
X164141519Y-99787016D01*
X164104345Y-99653535D01*
X164063052Y-99532727D01*
X164011751Y-99417015D01*
X163944555Y-99298821D01*
X163855576Y-99170565D01*
X163738926Y-99024670D01*
X163588718Y-98853556D01*
X163399064Y-98649645D01*
X163164077Y-98405359D01*
X162877868Y-98113120D01*
X162704517Y-97937334D01*
X162365217Y-97591900D01*
X162080714Y-97297108D01*
X161844793Y-97044896D01*
X161651236Y-96827204D01*
X161493828Y-96635972D01*
X161366353Y-96463139D01*
X161262595Y-96300644D01*
X161176338Y-96140428D01*
X161101365Y-95974430D01*
X161031461Y-95794589D01*
X161013221Y-95744209D01*
X160964337Y-95604271D01*
X160929429Y-95488354D01*
X160906244Y-95377678D01*
X160892532Y-95253462D01*
X160886041Y-95096927D01*
X160884518Y-94889292D01*
X160885343Y-94677667D01*
X160894411Y-94295804D01*
X160919681Y-93977194D01*
X160965193Y-93701304D01*
X161034987Y-93447599D01*
X161133103Y-93195543D01*
X161208816Y-93033357D01*
X161415053Y-92705981D01*
X161689296Y-92415915D01*
X162019762Y-92172155D01*
X162394666Y-91983693D01*
X162723000Y-91877708D01*
X162921987Y-91844892D01*
X163180965Y-91825768D01*
X163476453Y-91819835D01*
X163784972Y-91826592D01*
G36*
X140960941Y-91823058D02*
X141263688Y-91837096D01*
X141526997Y-91864189D01*
X141693232Y-91895393D01*
X142095300Y-92032063D01*
X142467907Y-92228942D01*
X142796652Y-92475928D01*
X143067134Y-92762920D01*
X143194396Y-92948322D01*
X143353390Y-93274327D01*
X143479715Y-93657275D01*
X143566049Y-94073326D01*
X143585304Y-94220915D01*
X143594129Y-94346101D01*
X143601983Y-94546891D01*
X143608864Y-94814228D01*
X143614768Y-95139054D01*
X143619692Y-95512313D01*
X143623634Y-95924947D01*
X143626590Y-96367899D01*
X143628558Y-96832111D01*
X143629534Y-97308527D01*
X143629517Y-97788090D01*
X143628502Y-98261741D01*
X143626487Y-98720425D01*
X143623469Y-99155084D01*
X143619446Y-99556659D01*
X143614413Y-99916096D01*
X143608368Y-100224335D01*
X143601309Y-100472321D01*
X143593233Y-100650995D01*
X143587404Y-100725976D01*
X143500993Y-101261784D01*
X143360654Y-101734455D01*
X143165115Y-102147153D01*
X142913105Y-102503042D01*
X142840268Y-102584428D01*
X142521644Y-102869268D01*
X142159422Y-103088727D01*
X141750222Y-103243875D01*
X141290659Y-103335782D01*
X140777351Y-103365518D01*
X140413333Y-103352018D01*
X139929511Y-103281566D01*
X139494033Y-103141821D01*
X139108027Y-102933767D01*
X138772618Y-102658390D01*
X138488935Y-102316674D01*
X138258103Y-101909603D01*
X138081251Y-101438164D01*
X138036558Y-101275123D01*
X137936833Y-100879500D01*
X137937217Y-97471667D01*
X137937313Y-96855086D01*
X137937335Y-96806339D01*
X140208267Y-96806339D01*
X140209836Y-97478636D01*
X140210667Y-97706105D01*
X140213076Y-98293490D01*
X140215461Y-98802265D01*
X140217994Y-99238485D01*
X140220842Y-99608207D01*
X140224175Y-99917486D01*
X140228162Y-100172379D01*
X140232972Y-100378942D01*
X140238776Y-100543230D01*
X140245741Y-100671300D01*
X140254037Y-100769207D01*
X140263834Y-100843008D01*
X140275300Y-100898759D01*
X140288605Y-100942515D01*
X140302047Y-100976087D01*
X140417436Y-101147477D01*
X140577740Y-101251525D01*
X140771017Y-101283619D01*
X140984381Y-101239505D01*
X141088768Y-101158656D01*
X141184913Y-101003180D01*
X141188221Y-100996088D01*
X141281166Y-100794834D01*
X141281166Y-94317834D01*
X141186896Y-94141523D01*
X141064294Y-93983412D01*
X140906122Y-93901988D01*
X140711518Y-93896898D01*
X140629884Y-93914352D01*
X140461948Y-93995638D01*
X140338970Y-94140329D01*
X140255943Y-94354838D01*
X140243020Y-94409794D01*
X140233184Y-94501672D01*
X140224965Y-94677768D01*
X140218367Y-94937648D01*
X140213394Y-95280878D01*
X140210050Y-95707026D01*
X140208339Y-96215657D01*
X140208267Y-96806339D01*
X137937335Y-96806339D01*
X137937556Y-96317181D01*
X137938098Y-95851962D01*
X137939091Y-95453436D01*
X137940689Y-95115614D01*
X137943044Y-94832504D01*
X137946309Y-94598117D01*
X137950636Y-94406460D01*
X137956178Y-94251543D01*
X137963089Y-94127375D01*
X137971520Y-94027966D01*
X137981624Y-93947325D01*
X137993555Y-93879460D01*
X138007464Y-93818382D01*
X138023505Y-93758099D01*
X138032714Y-93725167D01*
X138199539Y-93259716D01*
X138420634Y-92859142D01*
X138696595Y-92522850D01*
X139028012Y-92250239D01*
X139415479Y-92040713D01*
X139846085Y-91897020D01*
X140061329Y-91859056D01*
X140335236Y-91834060D01*
X140643282Y-91822053D01*
X140960941Y-91823058D01*
X140960941Y-91823058D01*
G37*
X140960941Y-91823058D02*
X141263688Y-91837096D01*
X141526997Y-91864189D01*
X141693232Y-91895393D01*
X142095300Y-92032063D01*
X142467907Y-92228942D01*
X142796652Y-92475928D01*
X143067134Y-92762920D01*
X143194396Y-92948322D01*
X143353390Y-93274327D01*
X143479715Y-93657275D01*
X143566049Y-94073326D01*
X143585304Y-94220915D01*
X143594129Y-94346101D01*
X143601983Y-94546891D01*
X143608864Y-94814228D01*
X143614768Y-95139054D01*
X143619692Y-95512313D01*
X143623634Y-95924947D01*
X143626590Y-96367899D01*
X143628558Y-96832111D01*
X143629534Y-97308527D01*
X143629517Y-97788090D01*
X143628502Y-98261741D01*
X143626487Y-98720425D01*
X143623469Y-99155084D01*
X143619446Y-99556659D01*
X143614413Y-99916096D01*
X143608368Y-100224335D01*
X143601309Y-100472321D01*
X143593233Y-100650995D01*
X143587404Y-100725976D01*
X143500993Y-101261784D01*
X143360654Y-101734455D01*
X143165115Y-102147153D01*
X142913105Y-102503042D01*
X142840268Y-102584428D01*
X142521644Y-102869268D01*
X142159422Y-103088727D01*
X141750222Y-103243875D01*
X141290659Y-103335782D01*
X140777351Y-103365518D01*
X140413333Y-103352018D01*
X139929511Y-103281566D01*
X139494033Y-103141821D01*
X139108027Y-102933767D01*
X138772618Y-102658390D01*
X138488935Y-102316674D01*
X138258103Y-101909603D01*
X138081251Y-101438164D01*
X138036558Y-101275123D01*
X137936833Y-100879500D01*
X137937217Y-97471667D01*
X137937313Y-96855086D01*
X137937335Y-96806339D01*
X140208267Y-96806339D01*
X140209836Y-97478636D01*
X140210667Y-97706105D01*
X140213076Y-98293490D01*
X140215461Y-98802265D01*
X140217994Y-99238485D01*
X140220842Y-99608207D01*
X140224175Y-99917486D01*
X140228162Y-100172379D01*
X140232972Y-100378942D01*
X140238776Y-100543230D01*
X140245741Y-100671300D01*
X140254037Y-100769207D01*
X140263834Y-100843008D01*
X140275300Y-100898759D01*
X140288605Y-100942515D01*
X140302047Y-100976087D01*
X140417436Y-101147477D01*
X140577740Y-101251525D01*
X140771017Y-101283619D01*
X140984381Y-101239505D01*
X141088768Y-101158656D01*
X141184913Y-101003180D01*
X141188221Y-100996088D01*
X141281166Y-100794834D01*
X141281166Y-94317834D01*
X141186896Y-94141523D01*
X141064294Y-93983412D01*
X140906122Y-93901988D01*
X140711518Y-93896898D01*
X140629884Y-93914352D01*
X140461948Y-93995638D01*
X140338970Y-94140329D01*
X140255943Y-94354838D01*
X140243020Y-94409794D01*
X140233184Y-94501672D01*
X140224965Y-94677768D01*
X140218367Y-94937648D01*
X140213394Y-95280878D01*
X140210050Y-95707026D01*
X140208339Y-96215657D01*
X140208267Y-96806339D01*
X137937335Y-96806339D01*
X137937556Y-96317181D01*
X137938098Y-95851962D01*
X137939091Y-95453436D01*
X137940689Y-95115614D01*
X137943044Y-94832504D01*
X137946309Y-94598117D01*
X137950636Y-94406460D01*
X137956178Y-94251543D01*
X137963089Y-94127375D01*
X137971520Y-94027966D01*
X137981624Y-93947325D01*
X137993555Y-93879460D01*
X138007464Y-93818382D01*
X138023505Y-93758099D01*
X138032714Y-93725167D01*
X138199539Y-93259716D01*
X138420634Y-92859142D01*
X138696595Y-92522850D01*
X139028012Y-92250239D01*
X139415479Y-92040713D01*
X139846085Y-91897020D01*
X140061329Y-91859056D01*
X140335236Y-91834060D01*
X140643282Y-91822053D01*
X140960941Y-91823058D01*
G36*
X141260000Y-106354940D02*
X141143583Y-106378445D01*
X141076630Y-106390410D01*
X140942295Y-106413198D01*
X140753291Y-106444736D01*
X140522326Y-106482949D01*
X140262113Y-106525762D01*
X139985361Y-106571100D01*
X139704782Y-106616889D01*
X139433086Y-106661053D01*
X139182984Y-106701517D01*
X138967186Y-106736208D01*
X138798404Y-106763050D01*
X138689347Y-106779968D01*
X138652923Y-106785000D01*
X138646096Y-106745410D01*
X138640505Y-106637610D01*
X138636725Y-106478054D01*
X138635333Y-106283194D01*
X138635333Y-105780514D01*
X139852416Y-105314964D01*
X140159072Y-105197872D01*
X140443591Y-105089627D01*
X140695417Y-104994214D01*
X140903994Y-104915620D01*
X141058767Y-104857828D01*
X141149180Y-104824823D01*
X141164750Y-104819521D01*
X141260000Y-104789628D01*
X141260000Y-106354940D01*
X141260000Y-106354940D01*
G37*
X141260000Y-106354940D02*
X141143583Y-106378445D01*
X141076630Y-106390410D01*
X140942295Y-106413198D01*
X140753291Y-106444736D01*
X140522326Y-106482949D01*
X140262113Y-106525762D01*
X139985361Y-106571100D01*
X139704782Y-106616889D01*
X139433086Y-106661053D01*
X139182984Y-106701517D01*
X138967186Y-106736208D01*
X138798404Y-106763050D01*
X138689347Y-106779968D01*
X138652923Y-106785000D01*
X138646096Y-106745410D01*
X138640505Y-106637610D01*
X138636725Y-106478054D01*
X138635333Y-106283194D01*
X138635333Y-105780514D01*
X139852416Y-105314964D01*
X140159072Y-105197872D01*
X140443591Y-105089627D01*
X140695417Y-104994214D01*
X140903994Y-104915620D01*
X141058767Y-104857828D01*
X141149180Y-104824823D01*
X141164750Y-104819521D01*
X141260000Y-104789628D01*
X141260000Y-106354940D01*
G36*
X154753750Y-107048738D02*
X155217185Y-107052577D01*
X155604433Y-107056969D01*
X155923968Y-107063237D01*
X156184264Y-107072707D01*
X156393798Y-107086703D01*
X156561043Y-107106551D01*
X156694475Y-107133575D01*
X156802569Y-107169100D01*
X156893800Y-107214451D01*
X156976643Y-107270952D01*
X157059573Y-107339928D01*
X157151066Y-107422704D01*
X157152090Y-107423640D01*
X157314215Y-107596884D01*
X157440974Y-107793425D01*
X157535612Y-108024448D01*
X157601374Y-108301139D01*
X157641504Y-108634682D01*
X157659248Y-109036262D01*
X157660712Y-109176834D01*
X157648078Y-109581510D01*
X157604237Y-109914906D01*
X157525532Y-110185801D01*
X157408305Y-110402974D01*
X157248899Y-110575204D01*
X157043655Y-110711271D01*
X157015348Y-110725797D01*
X156793080Y-110836858D01*
X157038123Y-110959346D01*
X157182387Y-111039300D01*
X157279109Y-111121077D01*
X157357792Y-111234285D01*
X157410166Y-111332666D01*
X157537166Y-111583498D01*
X157551317Y-112729666D01*
X157554101Y-113070454D01*
X157554383Y-113417342D01*
X157552333Y-113751054D01*
X157548119Y-114052316D01*
X157541909Y-114301853D01*
X157536397Y-114436750D01*
X157507326Y-114997667D01*
X155653333Y-114997667D01*
X155653333Y-113374151D01*
X155652125Y-112917808D01*
X155648575Y-112522521D01*
X155642795Y-112192716D01*
X155634899Y-111932816D01*
X155624998Y-111747247D01*
X155613205Y-111640434D01*
X155608892Y-111623152D01*
X155549188Y-111518705D01*
X155445619Y-111445960D01*
X155282798Y-111396632D01*
X155147037Y-111374397D01*
X154933666Y-111346093D01*
X154933666Y-114997667D01*
X152986333Y-114997667D01*
X152986333Y-108520667D01*
X154933666Y-108520667D01*
X154933666Y-109233278D01*
X154935467Y-109471204D01*
X154940455Y-109679376D01*
X154948003Y-109843124D01*
X154957487Y-109947778D01*
X154965416Y-109978583D01*
X155032412Y-109999403D01*
X155153265Y-110000679D01*
X155300388Y-109985999D01*
X155446194Y-109958948D01*
X155563094Y-109923116D01*
X155613410Y-109894319D01*
X155695822Y-109782669D01*
X155748775Y-109618333D01*
X155774193Y-109391753D01*
X155774103Y-109096214D01*
X155760224Y-108865059D01*
X155730193Y-108705411D01*
X155672039Y-108604213D01*
X155573793Y-108548408D01*
X155423486Y-108524941D01*
X155246476Y-108520667D01*
X154933666Y-108520667D01*
X152986333Y-108520667D01*
X152986333Y-107034704D01*
X154753750Y-107048738D01*
X154753750Y-107048738D01*
G37*
X154753750Y-107048738D02*
X155217185Y-107052577D01*
X155604433Y-107056969D01*
X155923968Y-107063237D01*
X156184264Y-107072707D01*
X156393798Y-107086703D01*
X156561043Y-107106551D01*
X156694475Y-107133575D01*
X156802569Y-107169100D01*
X156893800Y-107214451D01*
X156976643Y-107270952D01*
X157059573Y-107339928D01*
X157151066Y-107422704D01*
X157152090Y-107423640D01*
X157314215Y-107596884D01*
X157440974Y-107793425D01*
X157535612Y-108024448D01*
X157601374Y-108301139D01*
X157641504Y-108634682D01*
X157659248Y-109036262D01*
X157660712Y-109176834D01*
X157648078Y-109581510D01*
X157604237Y-109914906D01*
X157525532Y-110185801D01*
X157408305Y-110402974D01*
X157248899Y-110575204D01*
X157043655Y-110711271D01*
X157015348Y-110725797D01*
X156793080Y-110836858D01*
X157038123Y-110959346D01*
X157182387Y-111039300D01*
X157279109Y-111121077D01*
X157357792Y-111234285D01*
X157410166Y-111332666D01*
X157537166Y-111583498D01*
X157551317Y-112729666D01*
X157554101Y-113070454D01*
X157554383Y-113417342D01*
X157552333Y-113751054D01*
X157548119Y-114052316D01*
X157541909Y-114301853D01*
X157536397Y-114436750D01*
X157507326Y-114997667D01*
X155653333Y-114997667D01*
X155653333Y-113374151D01*
X155652125Y-112917808D01*
X155648575Y-112522521D01*
X155642795Y-112192716D01*
X155634899Y-111932816D01*
X155624998Y-111747247D01*
X155613205Y-111640434D01*
X155608892Y-111623152D01*
X155549188Y-111518705D01*
X155445619Y-111445960D01*
X155282798Y-111396632D01*
X155147037Y-111374397D01*
X154933666Y-111346093D01*
X154933666Y-114997667D01*
X152986333Y-114997667D01*
X152986333Y-108520667D01*
X154933666Y-108520667D01*
X154933666Y-109233278D01*
X154935467Y-109471204D01*
X154940455Y-109679376D01*
X154948003Y-109843124D01*
X154957487Y-109947778D01*
X154965416Y-109978583D01*
X155032412Y-109999403D01*
X155153265Y-110000679D01*
X155300388Y-109985999D01*
X155446194Y-109958948D01*
X155563094Y-109923116D01*
X155613410Y-109894319D01*
X155695822Y-109782669D01*
X155748775Y-109618333D01*
X155774193Y-109391753D01*
X155774103Y-109096214D01*
X155760224Y-108865059D01*
X155730193Y-108705411D01*
X155672039Y-108604213D01*
X155573793Y-108548408D01*
X155423486Y-108524941D01*
X155246476Y-108520667D01*
X154933666Y-108520667D01*
X152986333Y-108520667D01*
X152986333Y-107034704D01*
X154753750Y-107048738D01*
G36*
X146932666Y-108563000D02*
X145027666Y-108563000D01*
X145027666Y-109831316D01*
X145927250Y-109842742D01*
X146826833Y-109854167D01*
X146826833Y-111378167D01*
X145927250Y-111389592D01*
X145027666Y-111401017D01*
X145027666Y-114997667D01*
X143080333Y-114997667D01*
X143080333Y-107039000D01*
X146932666Y-107039000D01*
X146932666Y-108563000D01*
X146932666Y-108563000D01*
G37*
X146932666Y-108563000D02*
X145027666Y-108563000D01*
X145027666Y-109831316D01*
X145927250Y-109842742D01*
X146826833Y-109854167D01*
X146826833Y-111378167D01*
X145927250Y-111389592D01*
X145027666Y-111401017D01*
X145027666Y-114997667D01*
X143080333Y-114997667D01*
X143080333Y-107039000D01*
X146932666Y-107039000D01*
X146932666Y-108563000D01*
G36*
X140443107Y-107040111D02*
X140836177Y-107043425D01*
X141148947Y-107048917D01*
X141380404Y-107056558D01*
X141529532Y-107066323D01*
X141595319Y-107078185D01*
X141598666Y-107081897D01*
X141603409Y-107129324D01*
X141617183Y-107254894D01*
X141639310Y-107452642D01*
X141669110Y-107716604D01*
X141705903Y-108040816D01*
X141749011Y-108419311D01*
X141797753Y-108846126D01*
X141851450Y-109315296D01*
X141909423Y-109820856D01*
X141970993Y-110356842D01*
X142035479Y-110917288D01*
X142043166Y-110984037D01*
X142108011Y-111547857D01*
X142170012Y-112088558D01*
X142228487Y-112600106D01*
X142282756Y-113076466D01*
X142332137Y-113511602D01*
X142375949Y-113899481D01*
X142413509Y-114234067D01*
X142444137Y-114509326D01*
X142467151Y-114719222D01*
X142481870Y-114857722D01*
X142487612Y-114918789D01*
X142487666Y-114920473D01*
X142482838Y-114946006D01*
X142461357Y-114965206D01*
X142412727Y-114978970D01*
X142326449Y-114988194D01*
X142192028Y-114993775D01*
X141998967Y-114996608D01*
X141736769Y-114997590D01*
X141583494Y-114997667D01*
X140679323Y-114997667D01*
X140629668Y-114479084D01*
X140608407Y-114267104D01*
X140587504Y-114076203D01*
X140569402Y-113927662D01*
X140556810Y-113844084D01*
X140533606Y-113727667D01*
X139968322Y-113727667D01*
X139733039Y-113726559D01*
X139568682Y-113730775D01*
X139461721Y-113751625D01*
X139398629Y-113800417D01*
X139365875Y-113888461D01*
X139349932Y-114027065D01*
X139337270Y-114227539D01*
X139335291Y-114256834D01*
X139320351Y-114453628D01*
X139303833Y-114641274D01*
X139288682Y-114787018D01*
X139284834Y-114817750D01*
X139260719Y-114997667D01*
X138334193Y-114997667D01*
X138064374Y-114996889D01*
X137825484Y-114994712D01*
X137629638Y-114991368D01*
X137488951Y-114987093D01*
X137415536Y-114982118D01*
X137407666Y-114979792D01*
X137412472Y-114931872D01*
X137426329Y-114807069D01*
X137448396Y-114612585D01*
X137477830Y-114355624D01*
X137513792Y-114043390D01*
X137555440Y-113683085D01*
X137601931Y-113281912D01*
X137652426Y-112847076D01*
X137697721Y-112457667D01*
X139521975Y-112457667D01*
X139943989Y-112457667D01*
X140123789Y-112454681D01*
X140269195Y-112446636D01*
X140361253Y-112434901D01*
X140383520Y-112425917D01*
X140382752Y-112378548D01*
X140373588Y-112255577D01*
X140356853Y-112065564D01*
X140333371Y-111817070D01*
X140303966Y-111518655D01*
X140269464Y-111178880D01*
X140230688Y-110806305D01*
X140197014Y-110489167D01*
X140154832Y-110093470D01*
X140115529Y-109721246D01*
X140080024Y-109381458D01*
X140049238Y-109083071D01*
X140024089Y-108835048D01*
X140005497Y-108646355D01*
X139994382Y-108525955D01*
X139991495Y-108485389D01*
X139971973Y-108413234D01*
X139937083Y-108404207D01*
X139920194Y-108438145D01*
X139900395Y-108532187D01*
X139877230Y-108690221D01*
X139850246Y-108916134D01*
X139818986Y-109213815D01*
X139782996Y-109587150D01*
X139741821Y-110040029D01*
X139729870Y-110175151D01*
X139695649Y-110563070D01*
X139662752Y-110934158D01*
X139632131Y-111277809D01*
X139604739Y-111583415D01*
X139581527Y-111840371D01*
X139563448Y-112038068D01*
X139551452Y-112165902D01*
X139548775Y-112193084D01*
X139521975Y-112457667D01*
X137697721Y-112457667D01*
X137706083Y-112385778D01*
X137762059Y-111905223D01*
X137819515Y-111412614D01*
X137877609Y-110915154D01*
X137935499Y-110420046D01*
X137992344Y-109934493D01*
X138047302Y-109465698D01*
X138099533Y-109020866D01*
X138148195Y-108607199D01*
X138192447Y-108231900D01*
X138231447Y-107902173D01*
X138264355Y-107625220D01*
X138290328Y-107408246D01*
X138308525Y-107258453D01*
X138318105Y-107183044D01*
X138319069Y-107176584D01*
X138342836Y-107039000D01*
X139970751Y-107039000D01*
X140443107Y-107040111D01*
X140443107Y-107040111D01*
G37*
X140443107Y-107040111D02*
X140836177Y-107043425D01*
X141148947Y-107048917D01*
X141380404Y-107056558D01*
X141529532Y-107066323D01*
X141595319Y-107078185D01*
X141598666Y-107081897D01*
X141603409Y-107129324D01*
X141617183Y-107254894D01*
X141639310Y-107452642D01*
X141669110Y-107716604D01*
X141705903Y-108040816D01*
X141749011Y-108419311D01*
X141797753Y-108846126D01*
X141851450Y-109315296D01*
X141909423Y-109820856D01*
X141970993Y-110356842D01*
X142035479Y-110917288D01*
X142043166Y-110984037D01*
X142108011Y-111547857D01*
X142170012Y-112088558D01*
X142228487Y-112600106D01*
X142282756Y-113076466D01*
X142332137Y-113511602D01*
X142375949Y-113899481D01*
X142413509Y-114234067D01*
X142444137Y-114509326D01*
X142467151Y-114719222D01*
X142481870Y-114857722D01*
X142487612Y-114918789D01*
X142487666Y-114920473D01*
X142482838Y-114946006D01*
X142461357Y-114965206D01*
X142412727Y-114978970D01*
X142326449Y-114988194D01*
X142192028Y-114993775D01*
X141998967Y-114996608D01*
X141736769Y-114997590D01*
X141583494Y-114997667D01*
X140679323Y-114997667D01*
X140629668Y-114479084D01*
X140608407Y-114267104D01*
X140587504Y-114076203D01*
X140569402Y-113927662D01*
X140556810Y-113844084D01*
X140533606Y-113727667D01*
X139968322Y-113727667D01*
X139733039Y-113726559D01*
X139568682Y-113730775D01*
X139461721Y-113751625D01*
X139398629Y-113800417D01*
X139365875Y-113888461D01*
X139349932Y-114027065D01*
X139337270Y-114227539D01*
X139335291Y-114256834D01*
X139320351Y-114453628D01*
X139303833Y-114641274D01*
X139288682Y-114787018D01*
X139284834Y-114817750D01*
X139260719Y-114997667D01*
X138334193Y-114997667D01*
X138064374Y-114996889D01*
X137825484Y-114994712D01*
X137629638Y-114991368D01*
X137488951Y-114987093D01*
X137415536Y-114982118D01*
X137407666Y-114979792D01*
X137412472Y-114931872D01*
X137426329Y-114807069D01*
X137448396Y-114612585D01*
X137477830Y-114355624D01*
X137513792Y-114043390D01*
X137555440Y-113683085D01*
X137601931Y-113281912D01*
X137652426Y-112847076D01*
X137697721Y-112457667D01*
X139521975Y-112457667D01*
X139943989Y-112457667D01*
X140123789Y-112454681D01*
X140269195Y-112446636D01*
X140361253Y-112434901D01*
X140383520Y-112425917D01*
X140382752Y-112378548D01*
X140373588Y-112255577D01*
X140356853Y-112065564D01*
X140333371Y-111817070D01*
X140303966Y-111518655D01*
X140269464Y-111178880D01*
X140230688Y-110806305D01*
X140197014Y-110489167D01*
X140154832Y-110093470D01*
X140115529Y-109721246D01*
X140080024Y-109381458D01*
X140049238Y-109083071D01*
X140024089Y-108835048D01*
X140005497Y-108646355D01*
X139994382Y-108525955D01*
X139991495Y-108485389D01*
X139971973Y-108413234D01*
X139937083Y-108404207D01*
X139920194Y-108438145D01*
X139900395Y-108532187D01*
X139877230Y-108690221D01*
X139850246Y-108916134D01*
X139818986Y-109213815D01*
X139782996Y-109587150D01*
X139741821Y-110040029D01*
X139729870Y-110175151D01*
X139695649Y-110563070D01*
X139662752Y-110934158D01*
X139632131Y-111277809D01*
X139604739Y-111583415D01*
X139581527Y-111840371D01*
X139563448Y-112038068D01*
X139551452Y-112165902D01*
X139548775Y-112193084D01*
X139521975Y-112457667D01*
X137697721Y-112457667D01*
X137706083Y-112385778D01*
X137762059Y-111905223D01*
X137819515Y-111412614D01*
X137877609Y-110915154D01*
X137935499Y-110420046D01*
X137992344Y-109934493D01*
X138047302Y-109465698D01*
X138099533Y-109020866D01*
X138148195Y-108607199D01*
X138192447Y-108231900D01*
X138231447Y-107902173D01*
X138264355Y-107625220D01*
X138290328Y-107408246D01*
X138308525Y-107258453D01*
X138318105Y-107183044D01*
X138319069Y-107176584D01*
X138342836Y-107039000D01*
X139970751Y-107039000D01*
X140443107Y-107040111D01*
G36*
X132255998Y-107134250D02*
X132266950Y-107193224D01*
X132290267Y-107327676D01*
X132324597Y-107529538D01*
X132368588Y-107790740D01*
X132420887Y-108103214D01*
X132480143Y-108458889D01*
X132545001Y-108849697D01*
X132614110Y-109267570D01*
X132648028Y-109473167D01*
X132718551Y-109898616D01*
X132785644Y-110298819D01*
X132847951Y-110666002D01*
X132904117Y-110992389D01*
X132952787Y-111270204D01*
X132992606Y-111491674D01*
X133022218Y-111649022D01*
X133040268Y-111734474D01*
X133044539Y-111747815D01*
X133056175Y-111713217D01*
X133079951Y-111602478D01*
X133114537Y-111423045D01*
X133158606Y-111182366D01*
X133210829Y-110887888D01*
X133269879Y-110547060D01*
X133334426Y-110167328D01*
X133403142Y-109756140D01*
X133444717Y-109504149D01*
X133515574Y-109073268D01*
X133582809Y-108665606D01*
X133645087Y-108289174D01*
X133701075Y-107951979D01*
X133749437Y-107662031D01*
X133788841Y-107427338D01*
X133817951Y-107255911D01*
X133835432Y-107155758D01*
X133839541Y-107134250D01*
X133860845Y-107039000D01*
X136815000Y-107039000D01*
X136815000Y-114997667D01*
X135037608Y-114997667D01*
X135026721Y-112221894D01*
X135015833Y-109446122D01*
X134483455Y-112211311D01*
X133951076Y-114976500D01*
X133085764Y-114987912D01*
X132220451Y-114999324D01*
X131078833Y-109407360D01*
X131067947Y-112202513D01*
X131057062Y-114997667D01*
X129322000Y-114997667D01*
X129322000Y-107039000D01*
X132233821Y-107039000D01*
X132255998Y-107134250D01*
X132255998Y-107134250D01*
G37*
X132255998Y-107134250D02*
X132266950Y-107193224D01*
X132290267Y-107327676D01*
X132324597Y-107529538D01*
X132368588Y-107790740D01*
X132420887Y-108103214D01*
X132480143Y-108458889D01*
X132545001Y-108849697D01*
X132614110Y-109267570D01*
X132648028Y-109473167D01*
X132718551Y-109898616D01*
X132785644Y-110298819D01*
X132847951Y-110666002D01*
X132904117Y-110992389D01*
X132952787Y-111270204D01*
X132992606Y-111491674D01*
X133022218Y-111649022D01*
X133040268Y-111734474D01*
X133044539Y-111747815D01*
X133056175Y-111713217D01*
X133079951Y-111602478D01*
X133114537Y-111423045D01*
X133158606Y-111182366D01*
X133210829Y-110887888D01*
X133269879Y-110547060D01*
X133334426Y-110167328D01*
X133403142Y-109756140D01*
X133444717Y-109504149D01*
X133515574Y-109073268D01*
X133582809Y-108665606D01*
X133645087Y-108289174D01*
X133701075Y-107951979D01*
X133749437Y-107662031D01*
X133788841Y-107427338D01*
X133817951Y-107255911D01*
X133835432Y-107155758D01*
X133839541Y-107134250D01*
X133860845Y-107039000D01*
X136815000Y-107039000D01*
X136815000Y-114997667D01*
X135037608Y-114997667D01*
X135026721Y-112221894D01*
X135015833Y-109446122D01*
X134483455Y-112211311D01*
X133951076Y-114976500D01*
X133085764Y-114987912D01*
X132220451Y-114999324D01*
X131078833Y-109407360D01*
X131067947Y-112202513D01*
X131057062Y-114997667D01*
X129322000Y-114997667D01*
X129322000Y-107039000D01*
X132233821Y-107039000D01*
X132255998Y-107134250D01*
G36*
X128560000Y-108563000D02*
X126655000Y-108563000D01*
X126655000Y-110129334D01*
X128475333Y-110129334D01*
X128475333Y-111611000D01*
X126653348Y-111611000D01*
X126676166Y-113452500D01*
X127681583Y-113463850D01*
X128687000Y-113475199D01*
X128687000Y-114997667D01*
X124707666Y-114997667D01*
X124707666Y-107039000D01*
X128560000Y-107039000D01*
X128560000Y-108563000D01*
X128560000Y-108563000D01*
G37*
X128560000Y-108563000D02*
X126655000Y-108563000D01*
X126655000Y-110129334D01*
X128475333Y-110129334D01*
X128475333Y-111611000D01*
X126653348Y-111611000D01*
X126676166Y-113452500D01*
X127681583Y-113463850D01*
X128687000Y-113475199D01*
X128687000Y-114997667D01*
X124707666Y-114997667D01*
X124707666Y-107039000D01*
X128560000Y-107039000D01*
X128560000Y-108563000D01*
G36*
X165792166Y-106976955D02*
X166150088Y-106984588D01*
X166445085Y-107008358D01*
X166697956Y-107051805D01*
X166929500Y-107118472D01*
X167153609Y-107208770D01*
X167456897Y-107382695D01*
X167706138Y-107608332D01*
X167904044Y-107890338D01*
X168053330Y-108233372D01*
X168156709Y-108642091D01*
X168208124Y-109018877D01*
X168237429Y-109326588D01*
X166257833Y-109303834D01*
X166245566Y-108956332D01*
X166237024Y-108781007D01*
X166222412Y-108668519D01*
X166195585Y-108597037D01*
X166150400Y-108544729D01*
X166123440Y-108522415D01*
X165980014Y-108455934D01*
X165801398Y-108437027D01*
X165624152Y-108468316D01*
X165585353Y-108483825D01*
X165467792Y-108578921D01*
X165409080Y-108720504D01*
X165409738Y-108893690D01*
X165470288Y-109083593D01*
X165559086Y-109233275D01*
X165626572Y-109307442D01*
X165749950Y-109424378D01*
X165918462Y-109574639D01*
X166121351Y-109748778D01*
X166347861Y-109937349D01*
X166521189Y-110078083D01*
X166768442Y-110279586D01*
X167009374Y-110481261D01*
X167230911Y-110671763D01*
X167419974Y-110839744D01*
X167563487Y-110973856D01*
X167623457Y-111034593D01*
X167879270Y-111347698D01*
X168065502Y-111670238D01*
X168187121Y-112016750D01*
X168249098Y-112401773D01*
X168256401Y-112839846D01*
X168254612Y-112881000D01*
X168205535Y-113374300D01*
X168107546Y-113799650D01*
X167958907Y-114159409D01*
X167757878Y-114455936D01*
X167502720Y-114691589D01*
X167191695Y-114868727D01*
X166823064Y-114989707D01*
X166677747Y-115019641D01*
X166340971Y-115060305D01*
X165965354Y-115073796D01*
X165592411Y-115059620D01*
X165370480Y-115035244D01*
X164930090Y-114944103D01*
X164558855Y-114807055D01*
X164252567Y-114620454D01*
X164007016Y-114380657D01*
X163817994Y-114084018D01*
X163681293Y-113726892D01*
X163632441Y-113530173D01*
X163604823Y-113346986D01*
X163584352Y-113102021D01*
X163572606Y-112817981D01*
X163570401Y-112637584D01*
X163569666Y-112034334D01*
X165432333Y-112034334D01*
X165432578Y-112468250D01*
X165439647Y-112817210D01*
X165462818Y-113090434D01*
X165505695Y-113295927D01*
X165571885Y-113441692D01*
X165664993Y-113535734D01*
X165788625Y-113586055D01*
X165942693Y-113600667D01*
X166115606Y-113581841D01*
X166238588Y-113519661D01*
X166316737Y-113405578D01*
X166355153Y-113231040D01*
X166358934Y-112987496D01*
X166354734Y-112909647D01*
X166296895Y-112560952D01*
X166171062Y-112261151D01*
X166045409Y-112082866D01*
X165981230Y-112018007D01*
X165861807Y-111907928D01*
X165697112Y-111761403D01*
X165497117Y-111587204D01*
X165271794Y-111394107D01*
X165041670Y-111199732D01*
X164705799Y-110913800D01*
X164431053Y-110669039D01*
X164210050Y-110456875D01*
X164035405Y-110268734D01*
X163899732Y-110096042D01*
X163795647Y-109930225D01*
X163715766Y-109762708D01*
X163653709Y-109588180D01*
X163579895Y-109220386D01*
X163572513Y-108831165D01*
X163628099Y-108440993D01*
X163743190Y-108070345D01*
X163914325Y-107739697D01*
X163982736Y-107642551D01*
X164126095Y-107496616D01*
X164327780Y-107347620D01*
X164563447Y-107210778D01*
X164808751Y-107101305D01*
X164898085Y-107070467D01*
X165040201Y-107030218D01*
X165178283Y-107003053D01*
X165334432Y-106986661D01*
X165530750Y-106978730D01*
X165789337Y-106976950D01*
X165792166Y-106976955D01*
X165792166Y-106976955D01*
G37*
X165792166Y-106976955D02*
X166150088Y-106984588D01*
X166445085Y-107008358D01*
X166697956Y-107051805D01*
X166929500Y-107118472D01*
X167153609Y-107208770D01*
X167456897Y-107382695D01*
X167706138Y-107608332D01*
X167904044Y-107890338D01*
X168053330Y-108233372D01*
X168156709Y-108642091D01*
X168208124Y-109018877D01*
X168237429Y-109326588D01*
X166257833Y-109303834D01*
X166245566Y-108956332D01*
X166237024Y-108781007D01*
X166222412Y-108668519D01*
X166195585Y-108597037D01*
X166150400Y-108544729D01*
X166123440Y-108522415D01*
X165980014Y-108455934D01*
X165801398Y-108437027D01*
X165624152Y-108468316D01*
X165585353Y-108483825D01*
X165467792Y-108578921D01*
X165409080Y-108720504D01*
X165409738Y-108893690D01*
X165470288Y-109083593D01*
X165559086Y-109233275D01*
X165626572Y-109307442D01*
X165749950Y-109424378D01*
X165918462Y-109574639D01*
X166121351Y-109748778D01*
X166347861Y-109937349D01*
X166521189Y-110078083D01*
X166768442Y-110279586D01*
X167009374Y-110481261D01*
X167230911Y-110671763D01*
X167419974Y-110839744D01*
X167563487Y-110973856D01*
X167623457Y-111034593D01*
X167879270Y-111347698D01*
X168065502Y-111670238D01*
X168187121Y-112016750D01*
X168249098Y-112401773D01*
X168256401Y-112839846D01*
X168254612Y-112881000D01*
X168205535Y-113374300D01*
X168107546Y-113799650D01*
X167958907Y-114159409D01*
X167757878Y-114455936D01*
X167502720Y-114691589D01*
X167191695Y-114868727D01*
X166823064Y-114989707D01*
X166677747Y-115019641D01*
X166340971Y-115060305D01*
X165965354Y-115073796D01*
X165592411Y-115059620D01*
X165370480Y-115035244D01*
X164930090Y-114944103D01*
X164558855Y-114807055D01*
X164252567Y-114620454D01*
X164007016Y-114380657D01*
X163817994Y-114084018D01*
X163681293Y-113726892D01*
X163632441Y-113530173D01*
X163604823Y-113346986D01*
X163584352Y-113102021D01*
X163572606Y-112817981D01*
X163570401Y-112637584D01*
X163569666Y-112034334D01*
X165432333Y-112034334D01*
X165432578Y-112468250D01*
X165439647Y-112817210D01*
X165462818Y-113090434D01*
X165505695Y-113295927D01*
X165571885Y-113441692D01*
X165664993Y-113535734D01*
X165788625Y-113586055D01*
X165942693Y-113600667D01*
X166115606Y-113581841D01*
X166238588Y-113519661D01*
X166316737Y-113405578D01*
X166355153Y-113231040D01*
X166358934Y-112987496D01*
X166354734Y-112909647D01*
X166296895Y-112560952D01*
X166171062Y-112261151D01*
X166045409Y-112082866D01*
X165981230Y-112018007D01*
X165861807Y-111907928D01*
X165697112Y-111761403D01*
X165497117Y-111587204D01*
X165271794Y-111394107D01*
X165041670Y-111199732D01*
X164705799Y-110913800D01*
X164431053Y-110669039D01*
X164210050Y-110456875D01*
X164035405Y-110268734D01*
X163899732Y-110096042D01*
X163795647Y-109930225D01*
X163715766Y-109762708D01*
X163653709Y-109588180D01*
X163579895Y-109220386D01*
X163572513Y-108831165D01*
X163628099Y-108440993D01*
X163743190Y-108070345D01*
X163914325Y-107739697D01*
X163982736Y-107642551D01*
X164126095Y-107496616D01*
X164327780Y-107347620D01*
X164563447Y-107210778D01*
X164808751Y-107101305D01*
X164898085Y-107070467D01*
X165040201Y-107030218D01*
X165178283Y-107003053D01*
X165334432Y-106986661D01*
X165530750Y-106978730D01*
X165789337Y-106976950D01*
X165792166Y-106976955D01*
G36*
X160794098Y-106976625D02*
X161085610Y-106991394D01*
X161336889Y-107019631D01*
X161486429Y-107050275D01*
X161897760Y-107197371D01*
X162242349Y-107396538D01*
X162520297Y-107647881D01*
X162731708Y-107951506D01*
X162876682Y-108307522D01*
X162933918Y-108558567D01*
X162946108Y-108672806D01*
X162955846Y-108857800D01*
X162963162Y-109115744D01*
X162968083Y-109448832D01*
X162970640Y-109859256D01*
X162970860Y-110349211D01*
X162968772Y-110920891D01*
X162967592Y-111126194D01*
X162964404Y-111624864D01*
X162961327Y-112046360D01*
X162958049Y-112398175D01*
X162954256Y-112687802D01*
X162949634Y-112922733D01*
X162943869Y-113110460D01*
X162936648Y-113258475D01*
X162927657Y-113374272D01*
X162916582Y-113465342D01*
X162903111Y-113539177D01*
X162886929Y-113603271D01*
X162867722Y-113665115D01*
X162860390Y-113687129D01*
X162692384Y-114065187D01*
X162462334Y-114385925D01*
X162171848Y-114647851D01*
X161822532Y-114849476D01*
X161471861Y-114974721D01*
X161321718Y-115004121D01*
X161113883Y-115029686D01*
X160873410Y-115049929D01*
X160625354Y-115063364D01*
X160394768Y-115068505D01*
X160206705Y-115063865D01*
X160119500Y-115054959D01*
X159663214Y-114948838D01*
X159270867Y-114787367D01*
X158941927Y-114570073D01*
X158675861Y-114296488D01*
X158472137Y-113966140D01*
X158330223Y-113578559D01*
X158298441Y-113445506D01*
X158282941Y-113327443D01*
X158269461Y-113135941D01*
X158258001Y-112881252D01*
X158248560Y-112573627D01*
X158241135Y-112223318D01*
X158235727Y-111840575D01*
X158232333Y-111435651D01*
X158230953Y-111018795D01*
X158230993Y-110991960D01*
X160140666Y-110991960D01*
X160140666Y-111001282D01*
X160140900Y-111512820D01*
X160141963Y-111946607D01*
X160144400Y-112309561D01*
X160148752Y-112608598D01*
X160155563Y-112850635D01*
X160165376Y-113042589D01*
X160178735Y-113191374D01*
X160196182Y-113303909D01*
X160218261Y-113387110D01*
X160245515Y-113447892D01*
X160278486Y-113493173D01*
X160317719Y-113529869D01*
X160340637Y-113547750D01*
X160442471Y-113586283D01*
X160585902Y-113599063D01*
X160731690Y-113585507D01*
X160824366Y-113554926D01*
X160867757Y-113529201D01*
X160904564Y-113497702D01*
X160935330Y-113453701D01*
X160960594Y-113390472D01*
X160980898Y-113301287D01*
X160996783Y-113179419D01*
X161008789Y-113018141D01*
X161017457Y-112810727D01*
X161023328Y-112550449D01*
X161026943Y-112230580D01*
X161028843Y-111844393D01*
X161029568Y-111385162D01*
X161029666Y-111001282D01*
X161028940Y-110561563D01*
X161026848Y-110149016D01*
X161023523Y-109771546D01*
X161019097Y-109437055D01*
X161013701Y-109153449D01*
X161007468Y-108928632D01*
X161000530Y-108770507D01*
X160993018Y-108686978D01*
X160990878Y-108678159D01*
X160911703Y-108537544D01*
X160795997Y-108460808D01*
X160625168Y-108436089D01*
X160611291Y-108436000D01*
X160414299Y-108468294D01*
X160269883Y-108566444D01*
X160180406Y-108717988D01*
X160172145Y-108781645D01*
X160164573Y-108922753D01*
X160157818Y-109134101D01*
X160152003Y-109408474D01*
X160147255Y-109738659D01*
X160143699Y-110117444D01*
X160141461Y-110537615D01*
X160140666Y-110991960D01*
X158230993Y-110991960D01*
X158231585Y-110600260D01*
X158234228Y-110190297D01*
X158238881Y-109799157D01*
X158245543Y-109437091D01*
X158254213Y-109114351D01*
X158264888Y-108841187D01*
X158277569Y-108627851D01*
X158292254Y-108484595D01*
X158299030Y-108447743D01*
X158423901Y-108068100D01*
X158607149Y-107746982D01*
X158851634Y-107481575D01*
X159160216Y-107269063D01*
X159535757Y-107106631D01*
X159717333Y-107051804D01*
X159923971Y-107012914D01*
X160188699Y-106987406D01*
X160486934Y-106975302D01*
X160794098Y-106976625D01*
X160794098Y-106976625D01*
G37*
X160794098Y-106976625D02*
X161085610Y-106991394D01*
X161336889Y-107019631D01*
X161486429Y-107050275D01*
X161897760Y-107197371D01*
X162242349Y-107396538D01*
X162520297Y-107647881D01*
X162731708Y-107951506D01*
X162876682Y-108307522D01*
X162933918Y-108558567D01*
X162946108Y-108672806D01*
X162955846Y-108857800D01*
X162963162Y-109115744D01*
X162968083Y-109448832D01*
X162970640Y-109859256D01*
X162970860Y-110349211D01*
X162968772Y-110920891D01*
X162967592Y-111126194D01*
X162964404Y-111624864D01*
X162961327Y-112046360D01*
X162958049Y-112398175D01*
X162954256Y-112687802D01*
X162949634Y-112922733D01*
X162943869Y-113110460D01*
X162936648Y-113258475D01*
X162927657Y-113374272D01*
X162916582Y-113465342D01*
X162903111Y-113539177D01*
X162886929Y-113603271D01*
X162867722Y-113665115D01*
X162860390Y-113687129D01*
X162692384Y-114065187D01*
X162462334Y-114385925D01*
X162171848Y-114647851D01*
X161822532Y-114849476D01*
X161471861Y-114974721D01*
X161321718Y-115004121D01*
X161113883Y-115029686D01*
X160873410Y-115049929D01*
X160625354Y-115063364D01*
X160394768Y-115068505D01*
X160206705Y-115063865D01*
X160119500Y-115054959D01*
X159663214Y-114948838D01*
X159270867Y-114787367D01*
X158941927Y-114570073D01*
X158675861Y-114296488D01*
X158472137Y-113966140D01*
X158330223Y-113578559D01*
X158298441Y-113445506D01*
X158282941Y-113327443D01*
X158269461Y-113135941D01*
X158258001Y-112881252D01*
X158248560Y-112573627D01*
X158241135Y-112223318D01*
X158235727Y-111840575D01*
X158232333Y-111435651D01*
X158230953Y-111018795D01*
X158230993Y-110991960D01*
X160140666Y-110991960D01*
X160140666Y-111001282D01*
X160140900Y-111512820D01*
X160141963Y-111946607D01*
X160144400Y-112309561D01*
X160148752Y-112608598D01*
X160155563Y-112850635D01*
X160165376Y-113042589D01*
X160178735Y-113191374D01*
X160196182Y-113303909D01*
X160218261Y-113387110D01*
X160245515Y-113447892D01*
X160278486Y-113493173D01*
X160317719Y-113529869D01*
X160340637Y-113547750D01*
X160442471Y-113586283D01*
X160585902Y-113599063D01*
X160731690Y-113585507D01*
X160824366Y-113554926D01*
X160867757Y-113529201D01*
X160904564Y-113497702D01*
X160935330Y-113453701D01*
X160960594Y-113390472D01*
X160980898Y-113301287D01*
X160996783Y-113179419D01*
X161008789Y-113018141D01*
X161017457Y-112810727D01*
X161023328Y-112550449D01*
X161026943Y-112230580D01*
X161028843Y-111844393D01*
X161029568Y-111385162D01*
X161029666Y-111001282D01*
X161028940Y-110561563D01*
X161026848Y-110149016D01*
X161023523Y-109771546D01*
X161019097Y-109437055D01*
X161013701Y-109153449D01*
X161007468Y-108928632D01*
X161000530Y-108770507D01*
X160993018Y-108686978D01*
X160990878Y-108678159D01*
X160911703Y-108537544D01*
X160795997Y-108460808D01*
X160625168Y-108436089D01*
X160611291Y-108436000D01*
X160414299Y-108468294D01*
X160269883Y-108566444D01*
X160180406Y-108717988D01*
X160172145Y-108781645D01*
X160164573Y-108922753D01*
X160157818Y-109134101D01*
X160152003Y-109408474D01*
X160147255Y-109738659D01*
X160143699Y-110117444D01*
X160141461Y-110537615D01*
X160140666Y-110991960D01*
X158230993Y-110991960D01*
X158231585Y-110600260D01*
X158234228Y-110190297D01*
X158238881Y-109799157D01*
X158245543Y-109437091D01*
X158254213Y-109114351D01*
X158264888Y-108841187D01*
X158277569Y-108627851D01*
X158292254Y-108484595D01*
X158299030Y-108447743D01*
X158423901Y-108068100D01*
X158607149Y-107746982D01*
X158851634Y-107481575D01*
X159160216Y-107269063D01*
X159535757Y-107106631D01*
X159717333Y-107051804D01*
X159923971Y-107012914D01*
X160188699Y-106987406D01*
X160486934Y-106975302D01*
X160794098Y-106976625D01*
G36*
X150263911Y-106993292D02*
X150628203Y-107035888D01*
X150939117Y-107112074D01*
X151210398Y-107226096D01*
X151455786Y-107382202D01*
X151641513Y-107539140D01*
X151824321Y-107740413D01*
X151968874Y-107973329D01*
X152088211Y-108260398D01*
X152125349Y-108374308D01*
X152142445Y-108435003D01*
X152156854Y-108502020D01*
X152168804Y-108582764D01*
X152178522Y-108684641D01*
X152186234Y-108815057D01*
X152192168Y-108981417D01*
X152196551Y-109191128D01*
X152199609Y-109451595D01*
X152201571Y-109770223D01*
X152202663Y-110154419D01*
X152203111Y-110611589D01*
X152203166Y-110912500D01*
X152202969Y-111442316D01*
X152201973Y-111895082D01*
X152199573Y-112278418D01*
X152195163Y-112599941D01*
X152188137Y-112867267D01*
X152177888Y-113088016D01*
X152163811Y-113269805D01*
X152145300Y-113420251D01*
X152121749Y-113546973D01*
X152092552Y-113657588D01*
X152057103Y-113759713D01*
X152014796Y-113860967D01*
X151965025Y-113968967D01*
X151959030Y-113981667D01*
X151761804Y-114302097D01*
X151498745Y-114571603D01*
X151173943Y-114787001D01*
X150791488Y-114945112D01*
X150679166Y-114977489D01*
X150431504Y-115024604D01*
X150131054Y-115053882D01*
X149807963Y-115064531D01*
X149492375Y-115055760D01*
X149214436Y-115026779D01*
X149159963Y-115017353D01*
X148739224Y-114901322D01*
X148376175Y-114723331D01*
X148070489Y-114483086D01*
X147821843Y-114180294D01*
X147629911Y-113814661D01*
X147538225Y-113552789D01*
X147522198Y-113486198D01*
X147508532Y-113399241D01*
X147496942Y-113284439D01*
X147487145Y-113134315D01*
X147478854Y-112941390D01*
X147471784Y-112698187D01*
X147465651Y-112397228D01*
X147460170Y-112031034D01*
X147455055Y-111592128D01*
X147452051Y-111291527D01*
X147449961Y-111036472D01*
X149345421Y-111036472D01*
X149346008Y-111421803D01*
X149348033Y-111795528D01*
X149351504Y-112146949D01*
X149356430Y-112465371D01*
X149362820Y-112740099D01*
X149370682Y-112960435D01*
X149380026Y-113115684D01*
X149387855Y-113182139D01*
X149453472Y-113389944D01*
X149561642Y-113525775D01*
X149715178Y-113592419D01*
X149810231Y-113600667D01*
X149935546Y-113594059D01*
X150031894Y-113577812D01*
X150042270Y-113574370D01*
X150108142Y-113521146D01*
X150177168Y-113426519D01*
X150183315Y-113415620D01*
X150199960Y-113378720D01*
X150214001Y-113329046D01*
X150225721Y-113259289D01*
X150235400Y-113162141D01*
X150243321Y-113030293D01*
X150249764Y-112856436D01*
X150255012Y-112633261D01*
X150259346Y-112353458D01*
X150263048Y-112009720D01*
X150266398Y-111594736D01*
X150269135Y-111187667D01*
X150271229Y-110765973D01*
X150272113Y-110363387D01*
X150271845Y-109989175D01*
X150270482Y-109652601D01*
X150268081Y-109362930D01*
X150264698Y-109129428D01*
X150260392Y-108961360D01*
X150255219Y-108867990D01*
X150254796Y-108864237D01*
X150206347Y-108658179D01*
X150115993Y-108522574D01*
X149977685Y-108451174D01*
X149840133Y-108436000D01*
X149649000Y-108464230D01*
X149512208Y-108553193D01*
X149422252Y-108709302D01*
X149391427Y-108819461D01*
X149380828Y-108912599D01*
X149371597Y-109079697D01*
X149363743Y-109310059D01*
X149357274Y-109592989D01*
X149352198Y-109917791D01*
X149348525Y-110273769D01*
X149346263Y-110650228D01*
X149345421Y-111036472D01*
X147449961Y-111036472D01*
X147447418Y-110726151D01*
X147445398Y-110238177D01*
X147446452Y-109820364D01*
X147451040Y-109465474D01*
X147459622Y-109166269D01*
X147472659Y-108915510D01*
X147490612Y-108705957D01*
X147513942Y-108530373D01*
X147543108Y-108381519D01*
X147578572Y-108252155D01*
X147620794Y-108135043D01*
X147658406Y-108048213D01*
X147837814Y-107751635D01*
X148080052Y-107488102D01*
X148364031Y-107279448D01*
X148442022Y-107236921D01*
X148661264Y-107137501D01*
X148880276Y-107065789D01*
X149118783Y-107018140D01*
X149396511Y-106990911D01*
X149733186Y-106980457D01*
X149832500Y-106980037D01*
X150263911Y-106993292D01*
X150263911Y-106993292D01*
G37*
X150263911Y-106993292D02*
X150628203Y-107035888D01*
X150939117Y-107112074D01*
X151210398Y-107226096D01*
X151455786Y-107382202D01*
X151641513Y-107539140D01*
X151824321Y-107740413D01*
X151968874Y-107973329D01*
X152088211Y-108260398D01*
X152125349Y-108374308D01*
X152142445Y-108435003D01*
X152156854Y-108502020D01*
X152168804Y-108582764D01*
X152178522Y-108684641D01*
X152186234Y-108815057D01*
X152192168Y-108981417D01*
X152196551Y-109191128D01*
X152199609Y-109451595D01*
X152201571Y-109770223D01*
X152202663Y-110154419D01*
X152203111Y-110611589D01*
X152203166Y-110912500D01*
X152202969Y-111442316D01*
X152201973Y-111895082D01*
X152199573Y-112278418D01*
X152195163Y-112599941D01*
X152188137Y-112867267D01*
X152177888Y-113088016D01*
X152163811Y-113269805D01*
X152145300Y-113420251D01*
X152121749Y-113546973D01*
X152092552Y-113657588D01*
X152057103Y-113759713D01*
X152014796Y-113860967D01*
X151965025Y-113968967D01*
X151959030Y-113981667D01*
X151761804Y-114302097D01*
X151498745Y-114571603D01*
X151173943Y-114787001D01*
X150791488Y-114945112D01*
X150679166Y-114977489D01*
X150431504Y-115024604D01*
X150131054Y-115053882D01*
X149807963Y-115064531D01*
X149492375Y-115055760D01*
X149214436Y-115026779D01*
X149159963Y-115017353D01*
X148739224Y-114901322D01*
X148376175Y-114723331D01*
X148070489Y-114483086D01*
X147821843Y-114180294D01*
X147629911Y-113814661D01*
X147538225Y-113552789D01*
X147522198Y-113486198D01*
X147508532Y-113399241D01*
X147496942Y-113284439D01*
X147487145Y-113134315D01*
X147478854Y-112941390D01*
X147471784Y-112698187D01*
X147465651Y-112397228D01*
X147460170Y-112031034D01*
X147455055Y-111592128D01*
X147452051Y-111291527D01*
X147449961Y-111036472D01*
X149345421Y-111036472D01*
X149346008Y-111421803D01*
X149348033Y-111795528D01*
X149351504Y-112146949D01*
X149356430Y-112465371D01*
X149362820Y-112740099D01*
X149370682Y-112960435D01*
X149380026Y-113115684D01*
X149387855Y-113182139D01*
X149453472Y-113389944D01*
X149561642Y-113525775D01*
X149715178Y-113592419D01*
X149810231Y-113600667D01*
X149935546Y-113594059D01*
X150031894Y-113577812D01*
X150042270Y-113574370D01*
X150108142Y-113521146D01*
X150177168Y-113426519D01*
X150183315Y-113415620D01*
X150199960Y-113378720D01*
X150214001Y-113329046D01*
X150225721Y-113259289D01*
X150235400Y-113162141D01*
X150243321Y-113030293D01*
X150249764Y-112856436D01*
X150255012Y-112633261D01*
X150259346Y-112353458D01*
X150263048Y-112009720D01*
X150266398Y-111594736D01*
X150269135Y-111187667D01*
X150271229Y-110765973D01*
X150272113Y-110363387D01*
X150271845Y-109989175D01*
X150270482Y-109652601D01*
X150268081Y-109362930D01*
X150264698Y-109129428D01*
X150260392Y-108961360D01*
X150255219Y-108867990D01*
X150254796Y-108864237D01*
X150206347Y-108658179D01*
X150115993Y-108522574D01*
X149977685Y-108451174D01*
X149840133Y-108436000D01*
X149649000Y-108464230D01*
X149512208Y-108553193D01*
X149422252Y-108709302D01*
X149391427Y-108819461D01*
X149380828Y-108912599D01*
X149371597Y-109079697D01*
X149363743Y-109310059D01*
X149357274Y-109592989D01*
X149352198Y-109917791D01*
X149348525Y-110273769D01*
X149346263Y-110650228D01*
X149345421Y-111036472D01*
X147449961Y-111036472D01*
X147447418Y-110726151D01*
X147445398Y-110238177D01*
X147446452Y-109820364D01*
X147451040Y-109465474D01*
X147459622Y-109166269D01*
X147472659Y-108915510D01*
X147490612Y-108705957D01*
X147513942Y-108530373D01*
X147543108Y-108381519D01*
X147578572Y-108252155D01*
X147620794Y-108135043D01*
X147658406Y-108048213D01*
X147837814Y-107751635D01*
X148080052Y-107488102D01*
X148364031Y-107279448D01*
X148442022Y-107236921D01*
X148661264Y-107137501D01*
X148880276Y-107065789D01*
X149118783Y-107018140D01*
X149396511Y-106990911D01*
X149733186Y-106980457D01*
X149832500Y-106980037D01*
X150263911Y-106993292D01*
G36*
X122140767Y-107003397D02*
X122575248Y-107076765D01*
X122945416Y-107200252D01*
X123254743Y-107376059D01*
X123506705Y-107606385D01*
X123704775Y-107893432D01*
X123852426Y-108239399D01*
X123902557Y-108411799D01*
X123945546Y-108619471D01*
X123976234Y-108843255D01*
X123987999Y-109034831D01*
X123988000Y-109035439D01*
X123988000Y-109325000D01*
X122040666Y-109325000D01*
X122040666Y-108984409D01*
X122037993Y-108809195D01*
X122026340Y-108695262D01*
X122000257Y-108619297D01*
X121954295Y-108557989D01*
X121936757Y-108539909D01*
X121849142Y-108472769D01*
X121741244Y-108442029D01*
X121617333Y-108436000D01*
X121422704Y-108465386D01*
X121286502Y-108547127D01*
X121209472Y-108671595D01*
X121192364Y-108829164D01*
X121235924Y-109010207D01*
X121340901Y-109205097D01*
X121508041Y-109404208D01*
X121539756Y-109435014D01*
X121627491Y-109513188D01*
X121768801Y-109633379D01*
X121950927Y-109784994D01*
X122161108Y-109957438D01*
X122386582Y-110140117D01*
X122464000Y-110202309D01*
X122811799Y-110485460D01*
X123097530Y-110729451D01*
X123328857Y-110943139D01*
X123513444Y-111135382D01*
X123658955Y-111315038D01*
X123773055Y-111490965D01*
X123863409Y-111672021D01*
X123937680Y-111867063D01*
X123957618Y-111928500D01*
X124010663Y-112167210D01*
X124042521Y-112460419D01*
X124052927Y-112780585D01*
X124041614Y-113100168D01*
X124008316Y-113391624D01*
X123973342Y-113558334D01*
X123839762Y-113960644D01*
X123668219Y-114291138D01*
X123452633Y-114556435D01*
X123186920Y-114763154D01*
X122865000Y-114917916D01*
X122664832Y-114982441D01*
X122500633Y-115014233D01*
X122276431Y-115038998D01*
X122016667Y-115055825D01*
X121745783Y-115063798D01*
X121488220Y-115062006D01*
X121268421Y-115049535D01*
X121174480Y-115038110D01*
X120730496Y-114942139D01*
X120356809Y-114802711D01*
X120048959Y-114616113D01*
X119802488Y-114378637D01*
X119612936Y-114086570D01*
X119475842Y-113736202D01*
X119438041Y-113593257D01*
X119404847Y-113387052D01*
X119383533Y-113103526D01*
X119374560Y-112749248D01*
X119374292Y-112679917D01*
X119373666Y-112034334D01*
X121236333Y-112034334D01*
X121236569Y-112574084D01*
X121241345Y-112873713D01*
X121257136Y-113101668D01*
X121286585Y-113270523D01*
X121332332Y-113392857D01*
X121397019Y-113481244D01*
X121434000Y-113514075D01*
X121590276Y-113587772D01*
X121771422Y-113600353D01*
X121944625Y-113552683D01*
X122027722Y-113498451D01*
X122084681Y-113444668D01*
X122119622Y-113389121D01*
X122137768Y-113310541D01*
X122144341Y-113187663D01*
X122144682Y-113022201D01*
X122125296Y-112724266D01*
X122064222Y-112474305D01*
X121952252Y-112242101D01*
X121868021Y-112114349D01*
X121811772Y-112053537D01*
X121699756Y-111947472D01*
X121541582Y-111804699D01*
X121346860Y-111633763D01*
X121125199Y-111443211D01*
X120892712Y-111247024D01*
X120573685Y-110977610D01*
X120313613Y-110750957D01*
X120104272Y-110558294D01*
X119937441Y-110390849D01*
X119804894Y-110239851D01*
X119698410Y-110096530D01*
X119609765Y-109952113D01*
X119530736Y-109797829D01*
X119527346Y-109790667D01*
X119463186Y-109642945D01*
X119422055Y-109509426D01*
X119397591Y-109360040D01*
X119383435Y-109164720D01*
X119380378Y-109095882D01*
X119393289Y-108640557D01*
X119471308Y-108239118D01*
X119614373Y-107891692D01*
X119822425Y-107598402D01*
X120095401Y-107359373D01*
X120292522Y-107240911D01*
X120505142Y-107139392D01*
X120705157Y-107066554D01*
X120913703Y-107018267D01*
X121151915Y-106990402D01*
X121440929Y-106978830D01*
X121638500Y-106977950D01*
X122140767Y-107003397D01*
X122140767Y-107003397D01*
G37*
X122140767Y-107003397D02*
X122575248Y-107076765D01*
X122945416Y-107200252D01*
X123254743Y-107376059D01*
X123506705Y-107606385D01*
X123704775Y-107893432D01*
X123852426Y-108239399D01*
X123902557Y-108411799D01*
X123945546Y-108619471D01*
X123976234Y-108843255D01*
X123987999Y-109034831D01*
X123988000Y-109035439D01*
X123988000Y-109325000D01*
X122040666Y-109325000D01*
X122040666Y-108984409D01*
X122037993Y-108809195D01*
X122026340Y-108695262D01*
X122000257Y-108619297D01*
X121954295Y-108557989D01*
X121936757Y-108539909D01*
X121849142Y-108472769D01*
X121741244Y-108442029D01*
X121617333Y-108436000D01*
X121422704Y-108465386D01*
X121286502Y-108547127D01*
X121209472Y-108671595D01*
X121192364Y-108829164D01*
X121235924Y-109010207D01*
X121340901Y-109205097D01*
X121508041Y-109404208D01*
X121539756Y-109435014D01*
X121627491Y-109513188D01*
X121768801Y-109633379D01*
X121950927Y-109784994D01*
X122161108Y-109957438D01*
X122386582Y-110140117D01*
X122464000Y-110202309D01*
X122811799Y-110485460D01*
X123097530Y-110729451D01*
X123328857Y-110943139D01*
X123513444Y-111135382D01*
X123658955Y-111315038D01*
X123773055Y-111490965D01*
X123863409Y-111672021D01*
X123937680Y-111867063D01*
X123957618Y-111928500D01*
X124010663Y-112167210D01*
X124042521Y-112460419D01*
X124052927Y-112780585D01*
X124041614Y-113100168D01*
X124008316Y-113391624D01*
X123973342Y-113558334D01*
X123839762Y-113960644D01*
X123668219Y-114291138D01*
X123452633Y-114556435D01*
X123186920Y-114763154D01*
X122865000Y-114917916D01*
X122664832Y-114982441D01*
X122500633Y-115014233D01*
X122276431Y-115038998D01*
X122016667Y-115055825D01*
X121745783Y-115063798D01*
X121488220Y-115062006D01*
X121268421Y-115049535D01*
X121174480Y-115038110D01*
X120730496Y-114942139D01*
X120356809Y-114802711D01*
X120048959Y-114616113D01*
X119802488Y-114378637D01*
X119612936Y-114086570D01*
X119475842Y-113736202D01*
X119438041Y-113593257D01*
X119404847Y-113387052D01*
X119383533Y-113103526D01*
X119374560Y-112749248D01*
X119374292Y-112679917D01*
X119373666Y-112034334D01*
X121236333Y-112034334D01*
X121236569Y-112574084D01*
X121241345Y-112873713D01*
X121257136Y-113101668D01*
X121286585Y-113270523D01*
X121332332Y-113392857D01*
X121397019Y-113481244D01*
X121434000Y-113514075D01*
X121590276Y-113587772D01*
X121771422Y-113600353D01*
X121944625Y-113552683D01*
X122027722Y-113498451D01*
X122084681Y-113444668D01*
X122119622Y-113389121D01*
X122137768Y-113310541D01*
X122144341Y-113187663D01*
X122144682Y-113022201D01*
X122125296Y-112724266D01*
X122064222Y-112474305D01*
X121952252Y-112242101D01*
X121868021Y-112114349D01*
X121811772Y-112053537D01*
X121699756Y-111947472D01*
X121541582Y-111804699D01*
X121346860Y-111633763D01*
X121125199Y-111443211D01*
X120892712Y-111247024D01*
X120573685Y-110977610D01*
X120313613Y-110750957D01*
X120104272Y-110558294D01*
X119937441Y-110390849D01*
X119804894Y-110239851D01*
X119698410Y-110096530D01*
X119609765Y-109952113D01*
X119530736Y-109797829D01*
X119527346Y-109790667D01*
X119463186Y-109642945D01*
X119422055Y-109509426D01*
X119397591Y-109360040D01*
X119383435Y-109164720D01*
X119380378Y-109095882D01*
X119393289Y-108640557D01*
X119471308Y-108239118D01*
X119614373Y-107891692D01*
X119822425Y-107598402D01*
X120095401Y-107359373D01*
X120292522Y-107240911D01*
X120505142Y-107139392D01*
X120705157Y-107066554D01*
X120913703Y-107018267D01*
X121151915Y-106990402D01*
X121440929Y-106978830D01*
X121638500Y-106977950D01*
X122140767Y-107003397D01*
D11*
G36*
X128158930Y-115059411D02*
X128212173Y-115070001D01*
X128312482Y-115111551D01*
X128402757Y-115171870D01*
X128479530Y-115248643D01*
X128539849Y-115338918D01*
X128581399Y-115439227D01*
X128602580Y-115545714D01*
X128602580Y-115654286D01*
X128581399Y-115760773D01*
X128539849Y-115861082D01*
X128479530Y-115951357D01*
X128402757Y-116028130D01*
X128312482Y-116088449D01*
X128212173Y-116129999D01*
X128158929Y-116140590D01*
X128105688Y-116151180D01*
X127997112Y-116151180D01*
X127943871Y-116140590D01*
X127890627Y-116129999D01*
X127790318Y-116088449D01*
X127700043Y-116028130D01*
X127623270Y-115951357D01*
X127562951Y-115861082D01*
X127521401Y-115760773D01*
X127500220Y-115654286D01*
X127500220Y-115545714D01*
X127521401Y-115439227D01*
X127562951Y-115338918D01*
X127623270Y-115248643D01*
X127700043Y-115171870D01*
X127790318Y-115111551D01*
X127890627Y-115070001D01*
X127943870Y-115059411D01*
X127997112Y-115048820D01*
X128105688Y-115048820D01*
X128158930Y-115059411D01*
X128158930Y-115059411D01*
G37*
G36*
X131156130Y-115059411D02*
X131209373Y-115070001D01*
X131309682Y-115111551D01*
X131399957Y-115171870D01*
X131476730Y-115248643D01*
X131537049Y-115338918D01*
X131578599Y-115439227D01*
X131599780Y-115545714D01*
X131599780Y-115654286D01*
X131578599Y-115760773D01*
X131537049Y-115861082D01*
X131476730Y-115951357D01*
X131399957Y-116028130D01*
X131309682Y-116088449D01*
X131209373Y-116129999D01*
X131156129Y-116140590D01*
X131102888Y-116151180D01*
X130994312Y-116151180D01*
X130941071Y-116140590D01*
X130887827Y-116129999D01*
X130787518Y-116088449D01*
X130697243Y-116028130D01*
X130620470Y-115951357D01*
X130560151Y-115861082D01*
X130518601Y-115760773D01*
X130497420Y-115654286D01*
X130497420Y-115545714D01*
X130518601Y-115439227D01*
X130560151Y-115338918D01*
X130620470Y-115248643D01*
X130697243Y-115171870D01*
X130787518Y-115111551D01*
X130887827Y-115070001D01*
X130941070Y-115059411D01*
X130994312Y-115048820D01*
X131102888Y-115048820D01*
X131156130Y-115059411D01*
X131156130Y-115059411D01*
G37*
G36*
X175600000Y-113500000D02*
X173700000Y-113500000D01*
X173700000Y-112100000D01*
X175600000Y-112100000D01*
X175600000Y-113500000D01*
X175600000Y-113500000D01*
G37*
G36*
X170700000Y-113500000D02*
X168800000Y-113500000D01*
X168800000Y-112100000D01*
X170700000Y-112100000D01*
X170700000Y-113500000D01*
X170700000Y-113500000D01*
G37*
G36*
X175600000Y-110300000D02*
X173700000Y-110300000D01*
X173700000Y-108900000D01*
X175600000Y-108900000D01*
X175600000Y-110300000D01*
X175600000Y-110300000D01*
G37*
G36*
X170700000Y-110300000D02*
X168800000Y-110300000D01*
X168800000Y-108900000D01*
X170700000Y-108900000D01*
X170700000Y-110300000D01*
X170700000Y-110300000D01*
G37*
G36*
X175600000Y-104900000D02*
X173700000Y-104900000D01*
X173700000Y-103500000D01*
X175600000Y-103500000D01*
X175600000Y-104900000D01*
X175600000Y-104900000D01*
G37*
G36*
X170700000Y-104900000D02*
X168800000Y-104900000D01*
X168800000Y-103500000D01*
X170700000Y-103500000D01*
X170700000Y-104900000D01*
X170700000Y-104900000D01*
G37*
G36*
X170700000Y-101700000D02*
X168800000Y-101700000D01*
X168800000Y-100300000D01*
X170700000Y-100300000D01*
X170700000Y-101700000D01*
X170700000Y-101700000D01*
G37*
G36*
X175600000Y-101700000D02*
X173700000Y-101700000D01*
X173700000Y-100300000D01*
X175600000Y-100300000D01*
X175600000Y-101700000D01*
X175600000Y-101700000D01*
G37*
G36*
X175550000Y-96550000D02*
X173650000Y-96550000D01*
X173650000Y-95150000D01*
X175550000Y-95150000D01*
X175550000Y-96550000D01*
X175550000Y-96550000D01*
G37*
G36*
X170650000Y-96550000D02*
X168750000Y-96550000D01*
X168750000Y-95150000D01*
X170650000Y-95150000D01*
X170650000Y-96550000D01*
X170650000Y-96550000D01*
G37*
G36*
X175550000Y-93350000D02*
X173650000Y-93350000D01*
X173650000Y-91950000D01*
X175550000Y-91950000D01*
X175550000Y-93350000D01*
X175550000Y-93350000D01*
G37*
G36*
X170650000Y-93350000D02*
X168750000Y-93350000D01*
X168750000Y-91950000D01*
X170650000Y-91950000D01*
X170650000Y-93350000D01*
X170650000Y-93350000D01*
G37*
M02*
