G04 #@! TF.GenerationSoftware,KiCad,Pcbnew,5.0.2+dfsg1-1*
G04 #@! TF.CreationDate,2019-10-14T23:09:41+02:00*
G04 #@! TF.ProjectId,NOMAS_semaforos,4e4f4d41-535f-4736-956d-61666f726f73,rev?*
G04 #@! TF.SameCoordinates,Original*
G04 #@! TF.FileFunction,Paste,Bot*
G04 #@! TF.FilePolarity,Positive*
%FSLAX46Y46*%
G04 Gerber Fmt 4.6, Leading zero omitted, Abs format (unit mm)*
G04 Created by KiCad (PCBNEW 5.0.2+dfsg1-1) date lun 14 oct 2019 23:09:41 CEST*
%MOMM*%
%LPD*%
G01*
G04 APERTURE LIST*
%ADD10R,2.640000X5.100000*%
%ADD11R,3.960000X3.960000*%
%ADD12R,1.700000X1.000000*%
%ADD13C,0.100000*%
%ADD14C,1.150000*%
%ADD15R,1.700000X0.650000*%
%ADD16R,0.998220X0.797560*%
%ADD17R,0.998220X0.599440*%
%ADD18R,0.698500X1.498600*%
%ADD19C,1.524000*%
%ADD20R,1.295000X1.400000*%
G04 APERTURE END LIST*
D10*
G04 #@! TO.C,BT1*
X135000000Y-103100000D03*
X158800000Y-103100000D03*
D11*
X146900000Y-103100000D03*
G04 #@! TD*
D12*
G04 #@! TO.C,SW1*
X167100000Y-109450000D03*
X160800000Y-109450000D03*
X167100000Y-113250000D03*
X160800000Y-113250000D03*
G04 #@! TD*
D13*
G04 #@! TO.C,C2*
G36*
X125374505Y-109001204D02*
X125398773Y-109004804D01*
X125422572Y-109010765D01*
X125445671Y-109019030D01*
X125467850Y-109029520D01*
X125488893Y-109042132D01*
X125508599Y-109056747D01*
X125526777Y-109073223D01*
X125543253Y-109091401D01*
X125557868Y-109111107D01*
X125570480Y-109132150D01*
X125580970Y-109154329D01*
X125589235Y-109177428D01*
X125595196Y-109201227D01*
X125598796Y-109225495D01*
X125600000Y-109249999D01*
X125600000Y-110150001D01*
X125598796Y-110174505D01*
X125595196Y-110198773D01*
X125589235Y-110222572D01*
X125580970Y-110245671D01*
X125570480Y-110267850D01*
X125557868Y-110288893D01*
X125543253Y-110308599D01*
X125526777Y-110326777D01*
X125508599Y-110343253D01*
X125488893Y-110357868D01*
X125467850Y-110370480D01*
X125445671Y-110380970D01*
X125422572Y-110389235D01*
X125398773Y-110395196D01*
X125374505Y-110398796D01*
X125350001Y-110400000D01*
X124699999Y-110400000D01*
X124675495Y-110398796D01*
X124651227Y-110395196D01*
X124627428Y-110389235D01*
X124604329Y-110380970D01*
X124582150Y-110370480D01*
X124561107Y-110357868D01*
X124541401Y-110343253D01*
X124523223Y-110326777D01*
X124506747Y-110308599D01*
X124492132Y-110288893D01*
X124479520Y-110267850D01*
X124469030Y-110245671D01*
X124460765Y-110222572D01*
X124454804Y-110198773D01*
X124451204Y-110174505D01*
X124450000Y-110150001D01*
X124450000Y-109249999D01*
X124451204Y-109225495D01*
X124454804Y-109201227D01*
X124460765Y-109177428D01*
X124469030Y-109154329D01*
X124479520Y-109132150D01*
X124492132Y-109111107D01*
X124506747Y-109091401D01*
X124523223Y-109073223D01*
X124541401Y-109056747D01*
X124561107Y-109042132D01*
X124582150Y-109029520D01*
X124604329Y-109019030D01*
X124627428Y-109010765D01*
X124651227Y-109004804D01*
X124675495Y-109001204D01*
X124699999Y-109000000D01*
X125350001Y-109000000D01*
X125374505Y-109001204D01*
X125374505Y-109001204D01*
G37*
D14*
X125025000Y-109700000D03*
D13*
G36*
X123324505Y-109001204D02*
X123348773Y-109004804D01*
X123372572Y-109010765D01*
X123395671Y-109019030D01*
X123417850Y-109029520D01*
X123438893Y-109042132D01*
X123458599Y-109056747D01*
X123476777Y-109073223D01*
X123493253Y-109091401D01*
X123507868Y-109111107D01*
X123520480Y-109132150D01*
X123530970Y-109154329D01*
X123539235Y-109177428D01*
X123545196Y-109201227D01*
X123548796Y-109225495D01*
X123550000Y-109249999D01*
X123550000Y-110150001D01*
X123548796Y-110174505D01*
X123545196Y-110198773D01*
X123539235Y-110222572D01*
X123530970Y-110245671D01*
X123520480Y-110267850D01*
X123507868Y-110288893D01*
X123493253Y-110308599D01*
X123476777Y-110326777D01*
X123458599Y-110343253D01*
X123438893Y-110357868D01*
X123417850Y-110370480D01*
X123395671Y-110380970D01*
X123372572Y-110389235D01*
X123348773Y-110395196D01*
X123324505Y-110398796D01*
X123300001Y-110400000D01*
X122649999Y-110400000D01*
X122625495Y-110398796D01*
X122601227Y-110395196D01*
X122577428Y-110389235D01*
X122554329Y-110380970D01*
X122532150Y-110370480D01*
X122511107Y-110357868D01*
X122491401Y-110343253D01*
X122473223Y-110326777D01*
X122456747Y-110308599D01*
X122442132Y-110288893D01*
X122429520Y-110267850D01*
X122419030Y-110245671D01*
X122410765Y-110222572D01*
X122404804Y-110198773D01*
X122401204Y-110174505D01*
X122400000Y-110150001D01*
X122400000Y-109249999D01*
X122401204Y-109225495D01*
X122404804Y-109201227D01*
X122410765Y-109177428D01*
X122419030Y-109154329D01*
X122429520Y-109132150D01*
X122442132Y-109111107D01*
X122456747Y-109091401D01*
X122473223Y-109073223D01*
X122491401Y-109056747D01*
X122511107Y-109042132D01*
X122532150Y-109029520D01*
X122554329Y-109019030D01*
X122577428Y-109010765D01*
X122601227Y-109004804D01*
X122625495Y-109001204D01*
X122649999Y-109000000D01*
X123300001Y-109000000D01*
X123324505Y-109001204D01*
X123324505Y-109001204D01*
G37*
D14*
X122975000Y-109700000D03*
G04 #@! TD*
D13*
G04 #@! TO.C,C1*
G36*
X134374505Y-109051204D02*
X134398773Y-109054804D01*
X134422572Y-109060765D01*
X134445671Y-109069030D01*
X134467850Y-109079520D01*
X134488893Y-109092132D01*
X134508599Y-109106747D01*
X134526777Y-109123223D01*
X134543253Y-109141401D01*
X134557868Y-109161107D01*
X134570480Y-109182150D01*
X134580970Y-109204329D01*
X134589235Y-109227428D01*
X134595196Y-109251227D01*
X134598796Y-109275495D01*
X134600000Y-109299999D01*
X134600000Y-110200001D01*
X134598796Y-110224505D01*
X134595196Y-110248773D01*
X134589235Y-110272572D01*
X134580970Y-110295671D01*
X134570480Y-110317850D01*
X134557868Y-110338893D01*
X134543253Y-110358599D01*
X134526777Y-110376777D01*
X134508599Y-110393253D01*
X134488893Y-110407868D01*
X134467850Y-110420480D01*
X134445671Y-110430970D01*
X134422572Y-110439235D01*
X134398773Y-110445196D01*
X134374505Y-110448796D01*
X134350001Y-110450000D01*
X133699999Y-110450000D01*
X133675495Y-110448796D01*
X133651227Y-110445196D01*
X133627428Y-110439235D01*
X133604329Y-110430970D01*
X133582150Y-110420480D01*
X133561107Y-110407868D01*
X133541401Y-110393253D01*
X133523223Y-110376777D01*
X133506747Y-110358599D01*
X133492132Y-110338893D01*
X133479520Y-110317850D01*
X133469030Y-110295671D01*
X133460765Y-110272572D01*
X133454804Y-110248773D01*
X133451204Y-110224505D01*
X133450000Y-110200001D01*
X133450000Y-109299999D01*
X133451204Y-109275495D01*
X133454804Y-109251227D01*
X133460765Y-109227428D01*
X133469030Y-109204329D01*
X133479520Y-109182150D01*
X133492132Y-109161107D01*
X133506747Y-109141401D01*
X133523223Y-109123223D01*
X133541401Y-109106747D01*
X133561107Y-109092132D01*
X133582150Y-109079520D01*
X133604329Y-109069030D01*
X133627428Y-109060765D01*
X133651227Y-109054804D01*
X133675495Y-109051204D01*
X133699999Y-109050000D01*
X134350001Y-109050000D01*
X134374505Y-109051204D01*
X134374505Y-109051204D01*
G37*
D14*
X134025000Y-109750000D03*
D13*
G36*
X132324505Y-109051204D02*
X132348773Y-109054804D01*
X132372572Y-109060765D01*
X132395671Y-109069030D01*
X132417850Y-109079520D01*
X132438893Y-109092132D01*
X132458599Y-109106747D01*
X132476777Y-109123223D01*
X132493253Y-109141401D01*
X132507868Y-109161107D01*
X132520480Y-109182150D01*
X132530970Y-109204329D01*
X132539235Y-109227428D01*
X132545196Y-109251227D01*
X132548796Y-109275495D01*
X132550000Y-109299999D01*
X132550000Y-110200001D01*
X132548796Y-110224505D01*
X132545196Y-110248773D01*
X132539235Y-110272572D01*
X132530970Y-110295671D01*
X132520480Y-110317850D01*
X132507868Y-110338893D01*
X132493253Y-110358599D01*
X132476777Y-110376777D01*
X132458599Y-110393253D01*
X132438893Y-110407868D01*
X132417850Y-110420480D01*
X132395671Y-110430970D01*
X132372572Y-110439235D01*
X132348773Y-110445196D01*
X132324505Y-110448796D01*
X132300001Y-110450000D01*
X131649999Y-110450000D01*
X131625495Y-110448796D01*
X131601227Y-110445196D01*
X131577428Y-110439235D01*
X131554329Y-110430970D01*
X131532150Y-110420480D01*
X131511107Y-110407868D01*
X131491401Y-110393253D01*
X131473223Y-110376777D01*
X131456747Y-110358599D01*
X131442132Y-110338893D01*
X131429520Y-110317850D01*
X131419030Y-110295671D01*
X131410765Y-110272572D01*
X131404804Y-110248773D01*
X131401204Y-110224505D01*
X131400000Y-110200001D01*
X131400000Y-109299999D01*
X131401204Y-109275495D01*
X131404804Y-109251227D01*
X131410765Y-109227428D01*
X131419030Y-109204329D01*
X131429520Y-109182150D01*
X131442132Y-109161107D01*
X131456747Y-109141401D01*
X131473223Y-109123223D01*
X131491401Y-109106747D01*
X131511107Y-109092132D01*
X131532150Y-109079520D01*
X131554329Y-109069030D01*
X131577428Y-109060765D01*
X131601227Y-109054804D01*
X131625495Y-109051204D01*
X131649999Y-109050000D01*
X132300001Y-109050000D01*
X132324505Y-109051204D01*
X132324505Y-109051204D01*
G37*
D14*
X131975000Y-109750000D03*
G04 #@! TD*
D15*
G04 #@! TO.C,U1*
X122350000Y-100095000D03*
X122350000Y-101365000D03*
X122350000Y-102635000D03*
X122350000Y-103905000D03*
X129650000Y-103905000D03*
X129650000Y-102635000D03*
X129650000Y-101365000D03*
X129650000Y-100095000D03*
G04 #@! TD*
D16*
G04 #@! TO.C,SW2*
X133199980Y-114500180D03*
D17*
X133199980Y-116598220D03*
D16*
X125900020Y-114500180D03*
D17*
X125900020Y-116598220D03*
D18*
X131797900Y-113852480D03*
X128800700Y-113852480D03*
X127302100Y-113852480D03*
G04 #@! TD*
D19*
G04 #@! TO.C,CON1*
X127900000Y-91300000D03*
X127900000Y-93800000D03*
X125400000Y-93800000D03*
X127900000Y-88800000D03*
X125400000Y-91300000D03*
X125400000Y-88800000D03*
G04 #@! TD*
D20*
G04 #@! TO.C,R1*
X165117500Y-104350000D03*
X163182500Y-104350000D03*
G04 #@! TD*
M02*
