G04 #@! TF.GenerationSoftware,KiCad,Pcbnew,5.0.2+dfsg1-1*
G04 #@! TF.CreationDate,2019-10-14T23:09:41+02:00*
G04 #@! TF.ProjectId,NOMAS_semaforos,4e4f4d41-535f-4736-956d-61666f726f73,rev?*
G04 #@! TF.SameCoordinates,Original*
G04 #@! TF.FileFunction,Soldermask,Bot*
G04 #@! TF.FilePolarity,Negative*
%FSLAX46Y46*%
G04 Gerber Fmt 4.6, Leading zero omitted, Abs format (unit mm)*
G04 Created by KiCad (PCBNEW 5.0.2+dfsg1-1) date lun 14 oct 2019 23:09:41 CEST*
%MOMM*%
%LPD*%
G01*
G04 APERTURE LIST*
%ADD10C,0.100000*%
G04 APERTURE END LIST*
D10*
G36*
X133800690Y-116999540D02*
X132599270Y-116999540D01*
X132599270Y-116196900D01*
X133800690Y-116196900D01*
X133800690Y-116999540D01*
X133800690Y-116999540D01*
G37*
G36*
X126500730Y-116999540D02*
X125299310Y-116999540D01*
X125299310Y-116196900D01*
X126500730Y-116196900D01*
X126500730Y-116999540D01*
X126500730Y-116999540D01*
G37*
G36*
X131156130Y-115059411D02*
X131209373Y-115070001D01*
X131309682Y-115111551D01*
X131399957Y-115171870D01*
X131476730Y-115248643D01*
X131537049Y-115338918D01*
X131578599Y-115439227D01*
X131599780Y-115545714D01*
X131599780Y-115654286D01*
X131578599Y-115760773D01*
X131537049Y-115861082D01*
X131476730Y-115951357D01*
X131399957Y-116028130D01*
X131309682Y-116088449D01*
X131209373Y-116129999D01*
X131156129Y-116140590D01*
X131102888Y-116151180D01*
X130994312Y-116151180D01*
X130941071Y-116140590D01*
X130887827Y-116129999D01*
X130787518Y-116088449D01*
X130697243Y-116028130D01*
X130620470Y-115951357D01*
X130560151Y-115861082D01*
X130518601Y-115760773D01*
X130497420Y-115654286D01*
X130497420Y-115545714D01*
X130518601Y-115439227D01*
X130560151Y-115338918D01*
X130620470Y-115248643D01*
X130697243Y-115171870D01*
X130787518Y-115111551D01*
X130887827Y-115070001D01*
X130941070Y-115059411D01*
X130994312Y-115048820D01*
X131102888Y-115048820D01*
X131156130Y-115059411D01*
X131156130Y-115059411D01*
G37*
G36*
X128158930Y-115059411D02*
X128212173Y-115070001D01*
X128312482Y-115111551D01*
X128402757Y-115171870D01*
X128479530Y-115248643D01*
X128539849Y-115338918D01*
X128581399Y-115439227D01*
X128602580Y-115545714D01*
X128602580Y-115654286D01*
X128581399Y-115760773D01*
X128539849Y-115861082D01*
X128479530Y-115951357D01*
X128402757Y-116028130D01*
X128312482Y-116088449D01*
X128212173Y-116129999D01*
X128158929Y-116140590D01*
X128105688Y-116151180D01*
X127997112Y-116151180D01*
X127943871Y-116140590D01*
X127890627Y-116129999D01*
X127790318Y-116088449D01*
X127700043Y-116028130D01*
X127623270Y-115951357D01*
X127562951Y-115861082D01*
X127521401Y-115760773D01*
X127500220Y-115654286D01*
X127500220Y-115545714D01*
X127521401Y-115439227D01*
X127562951Y-115338918D01*
X127623270Y-115248643D01*
X127700043Y-115171870D01*
X127790318Y-115111551D01*
X127890627Y-115070001D01*
X127943870Y-115059411D01*
X127997112Y-115048820D01*
X128105688Y-115048820D01*
X128158930Y-115059411D01*
X128158930Y-115059411D01*
G37*
G36*
X126500730Y-115000560D02*
X125299310Y-115000560D01*
X125299310Y-113999800D01*
X126500730Y-113999800D01*
X126500730Y-115000560D01*
X126500730Y-115000560D01*
G37*
G36*
X133800690Y-115000560D02*
X132599270Y-115000560D01*
X132599270Y-113999800D01*
X133800690Y-113999800D01*
X133800690Y-115000560D01*
X133800690Y-115000560D01*
G37*
G36*
X127752950Y-114703380D02*
X126851250Y-114703380D01*
X126851250Y-113001580D01*
X127752950Y-113001580D01*
X127752950Y-114703380D01*
X127752950Y-114703380D01*
G37*
G36*
X129251550Y-114703380D02*
X128349850Y-114703380D01*
X128349850Y-113001580D01*
X129251550Y-113001580D01*
X129251550Y-114703380D01*
X129251550Y-114703380D01*
G37*
G36*
X132248750Y-114703380D02*
X131347050Y-114703380D01*
X131347050Y-113001580D01*
X132248750Y-113001580D01*
X132248750Y-114703380D01*
X132248750Y-114703380D01*
G37*
G36*
X168150000Y-113950000D02*
X166050000Y-113950000D01*
X166050000Y-112550000D01*
X168150000Y-112550000D01*
X168150000Y-113950000D01*
X168150000Y-113950000D01*
G37*
G36*
X161850000Y-113950000D02*
X159750000Y-113950000D01*
X159750000Y-112550000D01*
X161850000Y-112550000D01*
X161850000Y-113950000D01*
X161850000Y-113950000D01*
G37*
G36*
X132535530Y-108855710D02*
X132585379Y-108870831D01*
X132631311Y-108895382D01*
X132671574Y-108928426D01*
X132704618Y-108968689D01*
X132729169Y-109014621D01*
X132744290Y-109064470D01*
X132750000Y-109122444D01*
X132750000Y-110377556D01*
X132744290Y-110435530D01*
X132729169Y-110485379D01*
X132704618Y-110531311D01*
X132671574Y-110571574D01*
X132631311Y-110604618D01*
X132585379Y-110629169D01*
X132535530Y-110644290D01*
X132477556Y-110650000D01*
X131472444Y-110650000D01*
X131414470Y-110644290D01*
X131364621Y-110629169D01*
X131318689Y-110604618D01*
X131278426Y-110571574D01*
X131245382Y-110531311D01*
X131220831Y-110485379D01*
X131205710Y-110435530D01*
X131200000Y-110377556D01*
X131200000Y-109122444D01*
X131205710Y-109064470D01*
X131220831Y-109014621D01*
X131245382Y-108968689D01*
X131278426Y-108928426D01*
X131318689Y-108895382D01*
X131364621Y-108870831D01*
X131414470Y-108855710D01*
X131472444Y-108850000D01*
X132477556Y-108850000D01*
X132535530Y-108855710D01*
X132535530Y-108855710D01*
G37*
G36*
X134585530Y-108855710D02*
X134635379Y-108870831D01*
X134681311Y-108895382D01*
X134721574Y-108928426D01*
X134754618Y-108968689D01*
X134779169Y-109014621D01*
X134794290Y-109064470D01*
X134800000Y-109122444D01*
X134800000Y-110377556D01*
X134794290Y-110435530D01*
X134779169Y-110485379D01*
X134754618Y-110531311D01*
X134721574Y-110571574D01*
X134681311Y-110604618D01*
X134635379Y-110629169D01*
X134585530Y-110644290D01*
X134527556Y-110650000D01*
X133522444Y-110650000D01*
X133464470Y-110644290D01*
X133414621Y-110629169D01*
X133368689Y-110604618D01*
X133328426Y-110571574D01*
X133295382Y-110531311D01*
X133270831Y-110485379D01*
X133255710Y-110435530D01*
X133250000Y-110377556D01*
X133250000Y-109122444D01*
X133255710Y-109064470D01*
X133270831Y-109014621D01*
X133295382Y-108968689D01*
X133328426Y-108928426D01*
X133368689Y-108895382D01*
X133414621Y-108870831D01*
X133464470Y-108855710D01*
X133522444Y-108850000D01*
X134527556Y-108850000D01*
X134585530Y-108855710D01*
X134585530Y-108855710D01*
G37*
G36*
X125585530Y-108805710D02*
X125635379Y-108820831D01*
X125681311Y-108845382D01*
X125721574Y-108878426D01*
X125754618Y-108918689D01*
X125779169Y-108964621D01*
X125794290Y-109014470D01*
X125800000Y-109072444D01*
X125800000Y-110327556D01*
X125794290Y-110385530D01*
X125779169Y-110435379D01*
X125754618Y-110481311D01*
X125721574Y-110521574D01*
X125681311Y-110554618D01*
X125635379Y-110579169D01*
X125585530Y-110594290D01*
X125527556Y-110600000D01*
X124522444Y-110600000D01*
X124464470Y-110594290D01*
X124414621Y-110579169D01*
X124368689Y-110554618D01*
X124328426Y-110521574D01*
X124295382Y-110481311D01*
X124270831Y-110435379D01*
X124255710Y-110385530D01*
X124250000Y-110327556D01*
X124250000Y-109072444D01*
X124255710Y-109014470D01*
X124270831Y-108964621D01*
X124295382Y-108918689D01*
X124328426Y-108878426D01*
X124368689Y-108845382D01*
X124414621Y-108820831D01*
X124464470Y-108805710D01*
X124522444Y-108800000D01*
X125527556Y-108800000D01*
X125585530Y-108805710D01*
X125585530Y-108805710D01*
G37*
G36*
X123535530Y-108805710D02*
X123585379Y-108820831D01*
X123631311Y-108845382D01*
X123671574Y-108878426D01*
X123704618Y-108918689D01*
X123729169Y-108964621D01*
X123744290Y-109014470D01*
X123750000Y-109072444D01*
X123750000Y-110327556D01*
X123744290Y-110385530D01*
X123729169Y-110435379D01*
X123704618Y-110481311D01*
X123671574Y-110521574D01*
X123631311Y-110554618D01*
X123585379Y-110579169D01*
X123535530Y-110594290D01*
X123477556Y-110600000D01*
X122472444Y-110600000D01*
X122414470Y-110594290D01*
X122364621Y-110579169D01*
X122318689Y-110554618D01*
X122278426Y-110521574D01*
X122245382Y-110481311D01*
X122220831Y-110435379D01*
X122205710Y-110385530D01*
X122200000Y-110327556D01*
X122200000Y-109072444D01*
X122205710Y-109014470D01*
X122220831Y-108964621D01*
X122245382Y-108918689D01*
X122278426Y-108878426D01*
X122318689Y-108845382D01*
X122364621Y-108820831D01*
X122414470Y-108805710D01*
X122472444Y-108800000D01*
X123477556Y-108800000D01*
X123535530Y-108805710D01*
X123535530Y-108805710D01*
G37*
G36*
X161850000Y-110150000D02*
X159750000Y-110150000D01*
X159750000Y-108750000D01*
X161850000Y-108750000D01*
X161850000Y-110150000D01*
X161850000Y-110150000D01*
G37*
G36*
X168150000Y-110150000D02*
X166050000Y-110150000D01*
X166050000Y-108750000D01*
X168150000Y-108750000D01*
X168150000Y-110150000D01*
X168150000Y-110150000D01*
G37*
G36*
X160320000Y-105850000D02*
X157280000Y-105850000D01*
X157280000Y-100350000D01*
X160320000Y-100350000D01*
X160320000Y-105850000D01*
X160320000Y-105850000D01*
G37*
G36*
X136520000Y-105850000D02*
X133480000Y-105850000D01*
X133480000Y-100350000D01*
X136520000Y-100350000D01*
X136520000Y-105850000D01*
X136520000Y-105850000D01*
G37*
G36*
X149080000Y-105280000D02*
X144720000Y-105280000D01*
X144720000Y-100920000D01*
X149080000Y-100920000D01*
X149080000Y-105280000D01*
X149080000Y-105280000D01*
G37*
G36*
X165965000Y-105250000D02*
X162335000Y-105250000D01*
X162335000Y-103450000D01*
X165965000Y-103450000D01*
X165965000Y-105250000D01*
X165965000Y-105250000D01*
G37*
G36*
X130700000Y-104430000D02*
X128600000Y-104430000D01*
X128600000Y-99570000D01*
X130700000Y-99570000D01*
X130700000Y-104430000D01*
X130700000Y-104430000D01*
G37*
G36*
X123400000Y-104430000D02*
X121300000Y-104430000D01*
X121300000Y-99570000D01*
X123400000Y-99570000D01*
X123400000Y-104430000D01*
X123400000Y-104430000D01*
G37*
G36*
X125680603Y-92874968D02*
X125680606Y-92874969D01*
X125680605Y-92874969D01*
X125855678Y-92947486D01*
X125855679Y-92947487D01*
X126013241Y-93052767D01*
X126147233Y-93186759D01*
X126147234Y-93186761D01*
X126252514Y-93344322D01*
X126308603Y-93479734D01*
X126325032Y-93519397D01*
X126362000Y-93705250D01*
X126362000Y-93894750D01*
X126325032Y-94080603D01*
X126325031Y-94080605D01*
X126252514Y-94255678D01*
X126252513Y-94255679D01*
X126147233Y-94413241D01*
X126013241Y-94547233D01*
X125933923Y-94600232D01*
X125855678Y-94652514D01*
X125720266Y-94708603D01*
X125680603Y-94725032D01*
X125494750Y-94762000D01*
X125305250Y-94762000D01*
X125119397Y-94725032D01*
X125079734Y-94708603D01*
X124944322Y-94652514D01*
X124866077Y-94600232D01*
X124786759Y-94547233D01*
X124652767Y-94413241D01*
X124547487Y-94255679D01*
X124547486Y-94255678D01*
X124474969Y-94080605D01*
X124474968Y-94080603D01*
X124438000Y-93894750D01*
X124438000Y-93705250D01*
X124474968Y-93519397D01*
X124491397Y-93479734D01*
X124547486Y-93344322D01*
X124652766Y-93186761D01*
X124652767Y-93186759D01*
X124786759Y-93052767D01*
X124944321Y-92947487D01*
X124944322Y-92947486D01*
X125119395Y-92874969D01*
X125119394Y-92874969D01*
X125119397Y-92874968D01*
X125305250Y-92838000D01*
X125494750Y-92838000D01*
X125680603Y-92874968D01*
X125680603Y-92874968D01*
G37*
G36*
X128180603Y-92874968D02*
X128180606Y-92874969D01*
X128180605Y-92874969D01*
X128355678Y-92947486D01*
X128355679Y-92947487D01*
X128513241Y-93052767D01*
X128647233Y-93186759D01*
X128647234Y-93186761D01*
X128752514Y-93344322D01*
X128808603Y-93479734D01*
X128825032Y-93519397D01*
X128862000Y-93705250D01*
X128862000Y-93894750D01*
X128825032Y-94080603D01*
X128825031Y-94080605D01*
X128752514Y-94255678D01*
X128752513Y-94255679D01*
X128647233Y-94413241D01*
X128513241Y-94547233D01*
X128433923Y-94600232D01*
X128355678Y-94652514D01*
X128220266Y-94708603D01*
X128180603Y-94725032D01*
X127994750Y-94762000D01*
X127805250Y-94762000D01*
X127619397Y-94725032D01*
X127579734Y-94708603D01*
X127444322Y-94652514D01*
X127366077Y-94600232D01*
X127286759Y-94547233D01*
X127152767Y-94413241D01*
X127047487Y-94255679D01*
X127047486Y-94255678D01*
X126974969Y-94080605D01*
X126974968Y-94080603D01*
X126938000Y-93894750D01*
X126938000Y-93705250D01*
X126974968Y-93519397D01*
X126991397Y-93479734D01*
X127047486Y-93344322D01*
X127152766Y-93186761D01*
X127152767Y-93186759D01*
X127286759Y-93052767D01*
X127444321Y-92947487D01*
X127444322Y-92947486D01*
X127619395Y-92874969D01*
X127619394Y-92874969D01*
X127619397Y-92874968D01*
X127805250Y-92838000D01*
X127994750Y-92838000D01*
X128180603Y-92874968D01*
X128180603Y-92874968D01*
G37*
G36*
X125680603Y-90374968D02*
X125680606Y-90374969D01*
X125680605Y-90374969D01*
X125855678Y-90447486D01*
X125855679Y-90447487D01*
X126013241Y-90552767D01*
X126147233Y-90686759D01*
X126147234Y-90686761D01*
X126252514Y-90844322D01*
X126308603Y-90979734D01*
X126325032Y-91019397D01*
X126362000Y-91205250D01*
X126362000Y-91394750D01*
X126325032Y-91580603D01*
X126325031Y-91580605D01*
X126252514Y-91755678D01*
X126252513Y-91755679D01*
X126147233Y-91913241D01*
X126013241Y-92047233D01*
X125933923Y-92100232D01*
X125855678Y-92152514D01*
X125720266Y-92208603D01*
X125680603Y-92225032D01*
X125494750Y-92262000D01*
X125305250Y-92262000D01*
X125119397Y-92225032D01*
X125079734Y-92208603D01*
X124944322Y-92152514D01*
X124866077Y-92100232D01*
X124786759Y-92047233D01*
X124652767Y-91913241D01*
X124547487Y-91755679D01*
X124547486Y-91755678D01*
X124474969Y-91580605D01*
X124474968Y-91580603D01*
X124438000Y-91394750D01*
X124438000Y-91205250D01*
X124474968Y-91019397D01*
X124491397Y-90979734D01*
X124547486Y-90844322D01*
X124652766Y-90686761D01*
X124652767Y-90686759D01*
X124786759Y-90552767D01*
X124944321Y-90447487D01*
X124944322Y-90447486D01*
X125119395Y-90374969D01*
X125119394Y-90374969D01*
X125119397Y-90374968D01*
X125305250Y-90338000D01*
X125494750Y-90338000D01*
X125680603Y-90374968D01*
X125680603Y-90374968D01*
G37*
G36*
X128180603Y-90374968D02*
X128180606Y-90374969D01*
X128180605Y-90374969D01*
X128355678Y-90447486D01*
X128355679Y-90447487D01*
X128513241Y-90552767D01*
X128647233Y-90686759D01*
X128647234Y-90686761D01*
X128752514Y-90844322D01*
X128808603Y-90979734D01*
X128825032Y-91019397D01*
X128862000Y-91205250D01*
X128862000Y-91394750D01*
X128825032Y-91580603D01*
X128825031Y-91580605D01*
X128752514Y-91755678D01*
X128752513Y-91755679D01*
X128647233Y-91913241D01*
X128513241Y-92047233D01*
X128433923Y-92100232D01*
X128355678Y-92152514D01*
X128220266Y-92208603D01*
X128180603Y-92225032D01*
X127994750Y-92262000D01*
X127805250Y-92262000D01*
X127619397Y-92225032D01*
X127579734Y-92208603D01*
X127444322Y-92152514D01*
X127366077Y-92100232D01*
X127286759Y-92047233D01*
X127152767Y-91913241D01*
X127047487Y-91755679D01*
X127047486Y-91755678D01*
X126974969Y-91580605D01*
X126974968Y-91580603D01*
X126938000Y-91394750D01*
X126938000Y-91205250D01*
X126974968Y-91019397D01*
X126991397Y-90979734D01*
X127047486Y-90844322D01*
X127152766Y-90686761D01*
X127152767Y-90686759D01*
X127286759Y-90552767D01*
X127444321Y-90447487D01*
X127444322Y-90447486D01*
X127619395Y-90374969D01*
X127619394Y-90374969D01*
X127619397Y-90374968D01*
X127805250Y-90338000D01*
X127994750Y-90338000D01*
X128180603Y-90374968D01*
X128180603Y-90374968D01*
G37*
G36*
X128180603Y-87874968D02*
X128180606Y-87874969D01*
X128180605Y-87874969D01*
X128355678Y-87947486D01*
X128355679Y-87947487D01*
X128513241Y-88052767D01*
X128647233Y-88186759D01*
X128647234Y-88186761D01*
X128752514Y-88344322D01*
X128808603Y-88479734D01*
X128825032Y-88519397D01*
X128862000Y-88705250D01*
X128862000Y-88894750D01*
X128825032Y-89080603D01*
X128825031Y-89080605D01*
X128752514Y-89255678D01*
X128752513Y-89255679D01*
X128647233Y-89413241D01*
X128513241Y-89547233D01*
X128433923Y-89600232D01*
X128355678Y-89652514D01*
X128220266Y-89708603D01*
X128180603Y-89725032D01*
X127994750Y-89762000D01*
X127805250Y-89762000D01*
X127619397Y-89725032D01*
X127579734Y-89708603D01*
X127444322Y-89652514D01*
X127366077Y-89600232D01*
X127286759Y-89547233D01*
X127152767Y-89413241D01*
X127047487Y-89255679D01*
X127047486Y-89255678D01*
X126974969Y-89080605D01*
X126974968Y-89080603D01*
X126938000Y-88894750D01*
X126938000Y-88705250D01*
X126974968Y-88519397D01*
X126991397Y-88479734D01*
X127047486Y-88344322D01*
X127152766Y-88186761D01*
X127152767Y-88186759D01*
X127286759Y-88052767D01*
X127444321Y-87947487D01*
X127444322Y-87947486D01*
X127619395Y-87874969D01*
X127619394Y-87874969D01*
X127619397Y-87874968D01*
X127805250Y-87838000D01*
X127994750Y-87838000D01*
X128180603Y-87874968D01*
X128180603Y-87874968D01*
G37*
G36*
X125680603Y-87874968D02*
X125680606Y-87874969D01*
X125680605Y-87874969D01*
X125855678Y-87947486D01*
X125855679Y-87947487D01*
X126013241Y-88052767D01*
X126147233Y-88186759D01*
X126147234Y-88186761D01*
X126252514Y-88344322D01*
X126308603Y-88479734D01*
X126325032Y-88519397D01*
X126362000Y-88705250D01*
X126362000Y-88894750D01*
X126325032Y-89080603D01*
X126325031Y-89080605D01*
X126252514Y-89255678D01*
X126252513Y-89255679D01*
X126147233Y-89413241D01*
X126013241Y-89547233D01*
X125933923Y-89600232D01*
X125855678Y-89652514D01*
X125720266Y-89708603D01*
X125680603Y-89725032D01*
X125494750Y-89762000D01*
X125305250Y-89762000D01*
X125119397Y-89725032D01*
X125079734Y-89708603D01*
X124944322Y-89652514D01*
X124866077Y-89600232D01*
X124786759Y-89547233D01*
X124652767Y-89413241D01*
X124547487Y-89255679D01*
X124547486Y-89255678D01*
X124474969Y-89080605D01*
X124474968Y-89080603D01*
X124438000Y-88894750D01*
X124438000Y-88705250D01*
X124474968Y-88519397D01*
X124491397Y-88479734D01*
X124547486Y-88344322D01*
X124652766Y-88186761D01*
X124652767Y-88186759D01*
X124786759Y-88052767D01*
X124944321Y-87947487D01*
X124944322Y-87947486D01*
X125119395Y-87874969D01*
X125119394Y-87874969D01*
X125119397Y-87874968D01*
X125305250Y-87838000D01*
X125494750Y-87838000D01*
X125680603Y-87874968D01*
X125680603Y-87874968D01*
G37*
M02*
